<?xml version="1.0" encoding="UTF-8"?>
<svg version="1.1" viewBox="0 0 2000 2030" width="32" height="32" xmlns="http://www.w3.org/2000/svg">
<path transform="translate(664,138)" d="m0 0h14l1 6 1 20 16-10 9-4 3 1 4 9 1 9v5l15-5 17-3h11l3 3v13l-1 12 10-6 16-5 20-3h26l20 3 11 3-1 6-7 16-11 19-9 12-9 10-8 8-8 6-6 20-7 14-9 11-2 6-4 13-5 9-6 8 12 5 5 4 3 9-2 7 33-10 44-12 38-9 37-6 29-3 17-1h39l38 3 45 6 45 8 62 13 58 13h2l-16-28-15-26-14-24-13-23-13-24-17-34-12-28 1-3 44-5 48-3 75-3 19-1-5-18-2-8v-5l14 2 36 9 38 12 25 9 23 10 9 5 5-12 3-9 5 2 18 13 19 14 25 20 22 18 14 12 10 8 2 1 3-15h3l17 16 9 9 2 1v2l4 2 7 8 10 10 7 8 12 14 14 17 12 16 13 18 6 9 5-5 5-6 4 2 12 15 12 16 12 15 20 26 16 21 10 14 13 18 17 26 15 25 10 18 9 19 9 23 9 25 14 46 8 26 15 42 6 17 10 15 10 19 6 16 4 19v22l-3 14-2 6 2 19 1 15v35l5 13 3 16v23l-4 20-6 16-4 8-1 5-1 15 15-4h3l-1 17-5 44-9 62-14 84-7 36-4 31-6 25-8 20-10 18-4 8-8 20-11 21-10 14-10 13-14 29-9 15-11 13-16 16-7 6h-2l-2 5-7 12-12 16-12 14-12 11-13 8-1 2 7 1 11 3-4 7-10 13-11 13-11 12-15 15-8 7-13 11-14 11-16 13-12 9 15 2 3 1-2 4-16 13-19 14-18 13-17 12-12 8-22 14-19 10 1 1 16 3 6 4-5 4-25 14-29 15-22 11-36 16-28 11-19 6 17 5 6 3-5 5-14 10-20 12-21 11-20 8-18 6-24 5-21 2h-11l-20-2-17-4-2-1v27l-17 8-27 9-37 10-47 10-45 8-30 4-1-16-4-13-6-11-8-9-10-7-12-5-9-2h-15l-13 3-12 6-9 7-9 12-5 11-2 8-1 17h-16l-42-6-36-7-40-10-30-9-38-13-11-5-2-19-5-16v-2l-14 10-16 8h-2l-3-14v-7l-19 8-20 5-17 2h-15l-3-1v-9l3-12 6-12 2-3h-45l-22-3-23-6-17-8-3-2 1-5 9-11 11-10 4-3-24-5-28-8-28-10-26-11-17-9-10-7 4-7 6-6-38-19-18-11-10-8-5-5v-4l10-6 15-5-22-8-16-8-14-8-14-10-14-12v-4l8-8 5-10 1-3-24-4-17-5-13-5-13-9-1-4 6-7 8-4 8-2-11-6-13-10-7-7-10-14-3-6 1-3 19-5 2-1-12-12-9-13-9-16-6-18-24-12-19-12-12-9-12-11-10-11-10-15-8-15-8-21-4-10-8-8-9-11-8-12-6-16-3-15-2-22-11-18-8-17-5-15-3-15-1-8v-10l7-8 10-6 9-4-3-9-9-25-2-6-7-6-7-14-4-16v-8l11-3h24l3 1-10-19-6-18-3-17v-29l2-11 11-4-3-9-3-12v-13l-6-2-14-10-11-11-9-14-5-11-4-18v-18l3-14 5-12 2-4-1-13v-26l3-20 5-16 1-2v-6l-4-13-1-7v-16l3-14 5-13 7-11 4-6 5-14 8-11 8-6 12-5 5-1h20l9 2-2-15-4-16-1-7v-12l1-2 8-2 10 1 2 1-1-21v-29l2-16 1-4 13 1 12 3 1-6 9-21 10-18 9-11 9-9 11-6h3l-1-2v-27l3-17 2-5h27l14 3 1-12 6-16 7-11 9-9-4-8-1-5v-8l4-1h16l4-16 8-18 10-18 10-14 9-11 9-10 6-5 5 6 4 13 1 6 10-19 9-12 11-12 10-9 15-10 14-7 16-5 6-1h13l3 14 2 13 3-16 5-15 8-15 11-13 9-10 13-11 15-10 11-5 1 1 2 22 7-11 9-11 9-9 13-10 14-8 7-3 4 1 2 15 7-4 11-8 16-8 16-5z" fill="#000100"/>
<path transform="translate(979,337)" d="m0 0h50l32 3 30 5 30 7 36 12 25 10 29 14 21 12 22 14 17 13 13 10 14 12 13 12 22 22 9 11 9 10 12 16 12 17 14 22 12 22 12 24 11 27 12 36 8 32 6 36 3 31v61l-3 31-5 31-7 30-9 29-10 27-11 24-5 9h-2l2-9v-4l-28-11-24-10-21 3-25 4-8-1-116-42-19-7-11 2-140 39-2-1v-13l2-13 4-6 7-7 13-8 21-8 13-3 16-1 21 3 22 4-1-9-6-12-5-5v-2l-4-2-11-8-16-8v-23l-29-11-2-1-2 12-1 4h-2l-4-5-14-8-18-6-14-2h-19l-47 4-20-1-16-4-14-7-12-12-9-11-2-1-5 11-3 11v21l3 12 8 16 7 9 8 9 11 9 13 8 15 7 10 4-2 9-8 30-9-2-64-24-5 1-105 40-23 9-11-1-37-6-50 21h-2l2 7-10 2-12-26-11-29-9-29-6-24-5-26-4-32-2-31v-29l2-31 4-31 7-33 8-28 9-26 11-26 12-25 13-23 20-30 12-16 9-11 12-14 15-16 12-12 8-7 10-9 14-11 16-12 18-12 20-12 20-11 31-14 30-11 24-7 30-7 35-5z" fill="#FEFEFC"/>
<path transform="translate(991,701)" d="m0 0h28l26 3 25 6 25 9 16 8 16 9 17 12 13 11 7 7 2 1v2h2l7 8 11 13 12 17 10 18 8 17 7 19 6 24 3 20 1 13v22l-2 16-6-1-57-21-9-2-148 41-2-1v-13l2-13 4-6 7-7 13-8 21-8 13-3 16-1 21 3 22 4-1-9-6-12-5-5v-2l-4-2-11-8-16-8v-23l-29-11-2-1-2 12-1 4h-2l-4-5-14-8-18-6-14-2h-19l-47 4-20-1-16-4-14-7-12-12-9-11-2-1-5 11-3 11v21l3 12 8 16 7 9 8 9 11 9 13 8 15 7 10 4-2 9-8 30-9-2-64-24-5 1-50 19-10 3-2-13v-27l2-20 5-24 9-27 9-20 10-17 12-17 11-13 12-13 8-7 12-10 21-14 16-9 24-10 19-6 25-5z" fill="#FECB00"/>
<path transform="translate(1017,19)" d="m0 0 4 2 36 36 57 1 1 57 39 39-6 7-32 32-1 2-1 56-57 1-38 38-4-1-37-37-56-1-2-57-26-26-7-8-5-6 38-38 2-58 56-1 15-15 8-7z" fill="#01AED0"/>
<path transform="translate(970,1758)" d="m0 0h39l26 1 39 3 36 4 35 5 40 7 28 5 23 5 20 4 3 1v9l-8 60-10-1-30-6-38-7-34-5-38-5-42-4-41-2h-66l-45 2-37 3-33 4-28 4-27 5-34 8-13 4h-4l-8-64v-5l13-4 19-5 29-7 33-6 27-4 36-4 39-3 23-1z" fill="#FEFEFC"/>
<path transform="translate(876,1568)" d="m0 0 2 2 6 28-1 7-10 16-8 12-8 10-10 10-14 11-9 7 9 9 2 4v4l32-4 11-1h22l35 5 35 3h70l35-3 23-3 13 1 30 4 1-7 5-7 5-4v-2l-12-9-13-11-11-11-10-14-12-20-2-5 7-31 2-1 8 24 9 21 10 19 12 16 12 11 8 6h26l6 4 6 7 4 8 2 6v11l11 1 51 10 7 2-9 53-1 4-13-2-68-12-56-8-48-5-45-3h-94l-40 2-46 4-40 5-35 6-37 8-18 5h-2l-2-6-6-36-2-11 1-5 38-10 18-4h4l1-11 7-14 4-5 7-4h25l12-9 7-6 11-14 11-19 11-26z" fill="#01ADCD"/>
<path transform="translate(982,1852)" d="m0 0 48 1 38 3 48 6 49 8 55 11 27 6 1 2-8 61-1 6-9-1-56-11-49-8-39-5-46-4-22-1h-60l-44 2-36 3-40 5-34 6-31 7-25 7-4-1-5-34-3-20-1-13 8-3 24-7 34-8 39-7 38-5 32-3 34-2z" fill="#128C48"/>
<path transform="translate(1158,959)" d="m0 0h9l128 38-4 2-154 30-103 20 305-48h10l47 14h2l2-6 4 1-8 16-15 25-10 14-211 1 13 5 11 8 4 6v9l-7 12-7 10-2 5v10l5 5 11 5 25 6 60 9 9 2-4 5-19 14-16 11h-2l1 4v10l-29-11-30-12-24-11-13-8-8-7-3-5v-8l6-12 7-9 12-15 3-6v-7l-3-6-8-7-11-5-18-4-26-2h-58l-12-1-6-18-7-30-3-18v-8l5-2 78-17z" fill="#01ADCF"/>
<path transform="translate(1027,1066)" d="m0 0h70l26 2 18 4 14 7 7 7 2 5v7l-6 10-12 14-8 13-2 5v8l6 8 10 7 17 9 31 13 41 16 2-2 1 3v19l-4 19-5 12-12 18-12 14-9 9-11 9-17 12-12 6h-2l-7-10-9-8-20-12-10-9-7-8-10-15-12-21-12-27-12-36-12-40-20-60z" fill="#128C48"/>
<path transform="translate(453,1699)" d="m0 0 5 5 7 9-2 2-12 5-11 7-4 5 5 2 17 10 25 12 25 9 20 5 5 8 8 12 9 10 7 7 14 9 18 9 6 7 7 11 7 6 7 2h10l16-4 20-8 37-17 5-2h3l14 95 1 6v8l-7 7-13 9-6 2-6-15-17 4-31 7-16 2-1-8 4-13 5-9 12-10 12-9 9-7-16 8-22 12h-31l-23-2-20-4-16-5-7-3 2-4 9-11 9-10 6-9-11-1-25-5-29-8-35-12-28-12-10-5 3-3 8-3 16-2 17-10-26-3-25-6-20-8-17-10-9-7 1-3 11-9 10-9 10-6 22-13 14-10 10-9 5-5z" fill="#118B47"/>
<path transform="translate(433,259)" d="m0 0h4l1 3v44l-1 15 7-13 6-6 3 1 5 15 2 9v14l7 1-3 10-13 37-1 2 3-1h8l8 4-6 7-9 9-9 11-10 14-9 15-9 19-2 5-4-2-10-9-13-8-11-5 2-5 11-13 12-10 9-6-9 3-11 8-13 13-6 8-5-2-8-1-5-39-1 39h-7l-10 5-3 3h-2l-2-32-2 32-2 5-7 4-3-1-9-15-11-14-14-14-12-9-5-12 2-1h21l1-10 5-17 9-19 11-17 10-13 5-6 4 4 7 15 2 3 8-15 9-13 12-14 11-10 15-10 21-10z" fill="#118B47"/>
<path transform="translate(587,400)" d="m0 0h4v15l-3 17-6 14 16 2h30l-1 5-7 14-17 14-13 11-12 11-10 9-33 33-7 8-12 14-14 17-14 19-10 14-10 15-12 19-13 22-2 3-32 1-18 3-14 4-10 4-1-6v-14l22-1 16-3 16-6 3-3 6-17 5-4 13-5 11-7 6-5 9-12 5-10 1-3v-20l-4-15-4-6-9-8-5-5 31-2 14-1-39-2-7-1 5-5 4-5-13 7h-2l-2-6v-6l9-19 9-13 11-12 11-8-8 3-9 7-8 8-9 14-9 19-2 2-4-1-6-9-4-9-2-9v-19l4-17 8-14 8-11 9-10 8-8 12-9h3l9 13 4 8 1 5v8l13-9 16-9 21-8 18-5z" fill="#118B47"/>
<path transform="translate(109,1422)" d="m0 0 6 3 9 7 20 12 21 9 26 7 28 5 28 3 35 2 103 2 32 2 38 5 37 7 59 13 17 16 9 9 8 7 14 12 12 10-2 1-25-6-41-7-36-4-54-4-17-1-82-1-37-1-26-2-28-4-42-8-30-8-16-6-16-8-14-11-13-13-9-13-8-16-6-16z" fill="#118B47"/>
<path transform="translate(190,525)" d="m0 0h2l8 29 6 14 8 11 5 5 8 7 11 6 5-8 7-6 5-2h11l2 5 1 9v9l-1 18 5 12 2 8v4l22-1 12 2 3 1 2 8v18l7 6 1 7-9 11-14 15-7 8-11 12-7 8-11 12-7 8-5-5-10-5-2-17-5-15-7-11-5-4-9-3-21-3-9-4-10-8-10-9-10-5-5-1-14 1-14 5-6 3-6-10-2-8v-5l1-1h12l6 1-2-26v-24l2-15 1-1 9 1 6 4 4 3 3-8 7-21 8-17 8-12 8-9 9-6z" fill="#128C48"/>
<path transform="translate(1878,1454)" d="m0 0 1 2-11 23-8 12-11 13-10 9-14 10-16 8-24 8-28 6-36 6-20 3-26 2h-156l-57 3-41 4-32 5-10 1 5-5 13-10 11-9 14-12 12-11 5-4 24-5 44-8 36-5 21-2 20-1h139l33-2 31-4 28-6 15-5 16-7 20-11 8-6z" fill="#118B47"/>
<path transform="translate(348,458)" d="m0 0h16l13 3 14 7 11 9 11 11 11 16 8 16 6 18v2l9 3 10 8 7 10 6 14 2 9-1 8-6 11-7 8-10 7-24 12-3 6-4 12-5 5-9 4-5 1h-15l-13-4-6-4v-1l17-4 18-8 11-8 9-9 3-4-1-4-11-8-13-5-5-1-22-1-4-15-5-12-7-11-7-7-5 1-8 6-6 7-6 13-6 19-14-6-4-1h-13l-5 1v-16l-1-7-5-1h-16l-6 1-3-11v-21l4-11 6-10 8-8 10-5 4-1h16l9 2 2-6 11-23 5-7 9-6 9-3z" fill="#FDFEFC"/>
<path transform="translate(700,161)" d="m0 0h3l4 10v12l19-6 9-2 16-1v13l-5 19 27-9 25-5 8-1h25l13 3 2 1-1 6-11 21-10 13-6 7-11 9-11 8-10 5 11 2 3 2-1 7-7 16-4 6-4 5-12 6-11 2 9 7 3 5-1 4-11 10-13 8-12 5-8 2h-17l-12-3-15-8-2-2 1-5 8-13 1-1 15-3 13-4-28 1 1-7v-20l-2-10v-4l43-25-9 3-36 15-4-2-8-8-8-6 5-5 18-11-10 3-20 7-13-6-9-2-26-1 2-5 8-12 11-13 12-12 13-10 18-11 19-9z" fill="#118B47"/>
<path transform="translate(40,1263)" d="m0 0 4 2 12 13 23 23 10 7 15 5 36 8 40 6 62 6 49 5 39 6 53 10 40 10 29 9 5 5 18 27 11 16 3 5-7-1-52-13-50-10-39-6-42-5-86-8-68-8-21-3-15-4-16-8-11-9-10-10-10-14-8-16-7-19-7-28z" fill="#01ADCD"/>
<path transform="translate(1961,1297)" d="m0 0h1v6l-4 10-8 21-10 19-10 14-5 5-5 6-11 9-11 7-11 5-19 5-29 3-56 5-102 7-42 4-49 7-43 8-36 8h-5l4-7 14-18 16-24 16-5 32-8 35-7 51-8 44-5 91-6 38-4 30-5 27-6 12-6 9-7 14-12 10-10 8-7z" fill="#01ADCD"/>
<path transform="translate(21,898)" d="m0 0h2l8 16 8 9 17 12 15 9 16 8 20 9 30 11 57 17 40 12 20 7 24 10 27 13 46 25 5 3 6 53v7l-14-8-19-10-19-9-39-16-41-17-27-10-82-23-26-9-36-16-17-9-9-7-5-4-7-10-5-13-3-13v-19l4-16z" fill="#128C48"/>
<path transform="translate(39,728)" d="m0 0 2 1 5 29 6 16 8 10 16 10 25 13 19 8 30 11 36 12 26 9 29 12 19 9 19 10 30 16 41 23 10 6-1 13-2 18-1 23h-4l-22-14-24-14-27-14-23-11-27-11-56-19-36-12-29-11-25-11-21-10-16-10-12-11-7-10-5-12-2-9v-20l5-19 8-19z" fill="#01ADCD"/>
<path transform="translate(1981,931)" d="m0 0 2 2 6 19 2 12v10l-3 16-5 14-7 10-10 9-17 10-31 14-24 9-29 9-48 13-29 9-34 14-44 18-30 13-22 11-14 9h-2l1-11 6-39 2-11 44-24 28-14 29-12 30-10 41-12 36-11 24-8 27-11 21-10 18-11 12-9 9-8 7-11z" fill="#128C48"/>
<path transform="translate(1963,761)" d="m0 0 3 4 9 19 6 17 3 16v10l-2 12-6 15-8 10-7 7-15 10-19 10-27 12-26 10-44 15-36 12-28 10-32 14-28 14-24 14-24 15-3 1-3-54 13-8 28-16 24-14 23-12 16-8 17-8 37-14 36-12 29-10 24-10 23-11 18-11 7-6 6-10 4-11 4-21z" fill="#01ADCD"/>
<path transform="translate(622,244)" d="m0 0h16l13 4 9 5 7 6 7 11 5 13 1 4v19l-4 10-7 9-6 5h-2l7 8 9 10 6 12 1 4v17l-4 8-9 8-12 4-7 1h-9v15l-3 11-5 8-6 4-5 1h-10l-18-3-1-2 7-12 4-13v-15l-4-10-8-11-4-5 6-7 8-9 6-12 2-7v-12l-1-6-14-3h-10l-12 3-11 5-5-12-6-10-9-9-8-5-4 1-8 9-7 12-4 12-1 8v9l3 16 2 8-9-3-10-6-9-9-7-12-3-10-1-7v-9l3-15 5-12 6-8 8-6 6-3h11l15 5h5l7-8 6-7 10-4 9-1h9l9 2 6 4 6 5 8-7 8-4z" fill="#FEFEFC"/>
<path transform="translate(959,1940)" d="m0 0h59l40 3 40 5 47 8 48 10 37 9-5 4-17 8-21 7-36 8-34 5-40 4h-11l-5-15-6-11-9-10-8-7-14-7-16-4h-15l-14 3-10 4-13 9-8 8-8 13-5 14-1 4-22-1-39-4-40-6-27-6-24-7-16-6-12-6 1-2 26-8 31-8 29-6 40-6 40-4z" fill="#128C48"/>
<path transform="translate(628,1636)" d="m0 0h11l9 6 8 6 17-4 9-2h10l10 5 8 9 8 14 5 15 1 10-36 4v10l-1 13-6-2-13-5-11-2h-13l-14 3-12 5v4l6 15 7 12 8 10 8 8-2 4-7 10-5 12-2 8v15l13 6 11 3-5 4-13 8-7 2-8-1-8-7-9-15-4-5-12-6-19-6-9-5-6-7-3-7-1-15 3-24 2-12v-18l-4-10-6-13v-12l6-12 9-8 11-4 8-1 21-1 8-4 12-10z" fill="#FEFEFC"/>
<path transform="translate(664 1e3)" d="m0 0h9l149 30 74 15 3 1-1 12-1 7-32 2-20 3-15 5-12 7-7 8-1 3v7l5 8 8 8 8 7 10 9 7 9 1 8-4 10-9 10-9 8-17 11-14 8-26 12h-2v-8l2-10-16-10-19-14v-3l30-7 17-6 10-6 4-6v-10l-6-12-7-10-3-10 2-6 7-8 8-6 11-5 19-5 12-2-67-1h-119l-15 1-13-20-11-19-10-19v-2l5-2h4l4 11v2l24-8z" fill="#01ADCF"/>
<path transform="translate(239,1164)" d="m0 0h21l12 5 7 7 5 10 1 4h34l7 3 5 4 6 12 1 14-2 10 5 1 11 7 12 12 8 13 4 12v15l-5 9-10 8-14 9-4 3-2-1 6-10 3-9 1-6v-19h-25l-10 3-8 4-9-17-11-12-9-7-11-5-5 1-7 14-2 7v20l1 9-15-4-15-1-12 3-10 6-2 2 1 7 6 9 4 5h-9l-13-2-12-12-3-8v-14l2-6-9-14-5-12-1-11 3-9 7-8 8-5 10-3 1-14 4-13 7-11 9-7 13-5z" fill="#FEFEFC"/>
<path transform="translate(879,1066)" d="m0 0h17l-1 16-4 43-3 47-3 25-6 25-7 19-10 21-7 9-7 6-6 4-4 2-2 4-10 13-5-2-12-9-12-11-10-11-10-15-7-14-4-15-1-12 2-5 1 3 22-10 22-12 16-11 12-11 6-9 2-6-1-8-8-10-14-13-8-7-6-7-2-4v-7l4-7 8-7 14-7 15-4 15-2z" fill="#118C48"/>
<path transform="translate(473,1582)" d="m0 0h12l16 3 16 7 13 9 5 3 7-12 7-8 5-1 11 7 9 9 1 2 5-1 19-9 8-2 7 8 2 6v9l-4 11-6 8-6 7h-20l-15 2-11 4-8 6-7 11-4 13-1 7v24l3 17 1 8-8 30-2 1-25-7-21-8-20-10-8-5 2-4 11-6 12-5 6-2-5-5-13-12-10-10-9-13-6-13-2-8v-9l8-5 4-1h12l9 1-6-25-2-20v-11z" fill="#128C48"/>
<path transform="translate(360,735)" d="m0 0 3 1 4 16v11l-1 6 26-4h7l-1 5-11 31-10 34-7 30-6 33-2 12-6-2-28-16-23-13-26-15-25-14v-2l12-9 10-10 7-14 1-3v-11l-4-9-9-3-5-3-1-3v-7l2-11 7-9 5-5 7-6 10-5 10-1 5 7 2 11 10-8 12-7 15-5z" fill="#128C48"/>
<path transform="translate(136,687)" d="m0 0h16l9 4 8 7 6 12v2l28 1 9 3 8 6 5 7 2 5 1 6 1 28h8l9 2 5 4 1 7-3 11 6 1 9 5 6 7 1 3v7l-4 8-8 9h-1v-20l-18-2h-13l-22 3-14 4h-3l-4-13-8-11-11-9-8-5-7 1-6 7-3 8-2 11-6-2-25-12-17-10-12-9-7-8-1-3v-9l5-6 4-2 6-1h10v-17l3-12 4-8 9-10 10-6 9-3z" fill="#FEFEFC"/>
<path transform="translate(23,838)" d="m0 0 3 4 6 10 8 7 13 8 18 10 17 9 26 11 21 8 33 11 26 8 31 10 18 6 16 6 13 6 32 16 16 9 17 10 13 8 4 3 1 3v37l-5-2-14-9-10-6-16-8-21-10-17-7-12-5-13-5-12-5-26-9-21-6-31-8-26-8-16-5-16-6-15-7-16-8-11-8-3-2v-2l-4-2-15-15-9-14-5-13-1-6v-11l2-11z" fill="#FEFEFC"/>
<path transform="translate(1979,872)" d="m0 0 2 1 2 10v14l-3 12-7 14-8 10-5 4-4 5-7 6h-2v2l-15 10-23 11-20 8-30 9-17 5-20 5-36 11-12 4-21 8-18 7-15 7-23 11-18 10-11 6-14 9h-1l1-27 1-16 40-24 11-6 19-9 12-6 17-7 33-11 25-8 33-10 23-8 24-9 25-11 19-10 10-6 8-4 11-7 5-5 5-6z" fill="#FEFEFC"/>
<path transform="translate(1156,1065)" d="m0 0h215l-6 9-10 13-9 11-12 14-12 13-15 15-8 7-10 9-4 3-12-2-65-10-23-6-10-5-4-5v-10l5-10 8-11 3-6v-9l-5-7-11-7-15-5z" fill="#128C48"/>
<path transform="translate(79,1370)" d="m0 0h2v2l5 2 8 5 8 4 15 5 29 6 28 5 35 5 46 5 74 6 32 3 40 5 29 5 32 6 35 8 7 3 9 11 11 13 9 10-1 2-24-6-38-8-41-7-44-6-47-5-54-4-68-4-25-2-17-3-15-5-13-5-16-8-14-8-13-10-12-11-6-7-6-11z" fill="#FEFEFC"/>
<path transform="translate(1911,1404)" d="m0 0h2l-2 5-9 12-14 11-18 12-16 8-17 7-27 8-15 2-17 1-110 4-47 3-42 4-42 5-49 8-29 6 2-4 11-11 7-8 9-10 2-3 35-7 37-6 39-5 35-3 50-3 54-3 49-4 33-4 38-6 25-6 18-8z" fill="#FEFEFC"/>
<path transform="translate(57,1064)" d="m0 0h12l10 4 11 9 11 13 6-9 8-6 9-3 5 1 15 14 9 10 9 13 8 16 5-4 6-2h21l6 2 6 12 2 9v9l-1 5-16 8-8 8-7 14-4 18h-2l-5-13-6-9-9-8-4-1-13 4-9 6-9-10-10-6-11-4-8 5-3 4-2 4-13-3h-19l-13 2-7-14-2-6 1-5 38-4 5-1-7-7-9-14-5-14-2-10v-34z" fill="#128C48"/>
<path transform="translate(387,1551)" d="m0 0h23l16 3 12 5 10 6 6 7 1 3v19h-4l-13-8-12-5-9-2h-5l-3 13 1 16 1 9-26 3-16 5-10 6-2 4 14 15 14 12 18 12-2 10-1 4v16l3 11 1 2 19 4-3 2-15 5-5 1h-10l-14-7-10-9-15-15-18-6-9-6-3-3-1-8 8-16-5-1-10-6-7-8-6-13-1-5v-9l3-9 4-5 10-7 10-4 10-2h5l2-10 6-11 8-8 14-7z" fill="#FDFEFC"/>
<path transform="translate(952,1831)" d="m0 0h72l35 2 34 3 39 5 28 4 41 7 49 10-1 16-1 8-1 1-9-1-62-13-53-9-46-6-32-3-15-1-48-1-38 1-46 3-44 5-38 6-37 8-30 8-14 4-2-11-1-15 9-3 23-6 23-5 41-7 43-5 36-3z" fill="#FE802D"/>
<path transform="translate(491,642)" d="m0 0h8l8 9 5 12 4 18 3 29 1 100 4 33 5 27 6 28 12 42 9 27-1 4-2 3v26l-3-4-16-35-19-41-15-37-11-33-8-32-6-31-4-32-1-15v-30l3-26 5-21 5-12z" fill="#FEFEFC"/>
<path transform="translate(1517,642)" d="m0 0h7l7 6 6 13 5 19 3 19 1 15v20l-2 28-4 29-7 34-8 31-11 32-13 31-16 35-18 39-3 7h-1v-24l-3-6 1-7 12-37 9-34 8-38 5-36 1-14 1-97 3-26 4-18 5-12 6-8z" fill="#FEFEFC"/>
<path transform="translate(1007,80)" d="m0 0h23l14 3 15 6 11 7 10 9 7 7 2 5-9-5-10-5-12-3h-18l-13 3-12 6-11 9-9 12-5 11-3 13v16l3 13 7 14 11 12 8 6 10 5 10 3 8 1h10l14-3 12-5 8-6 2 1-9 11-10 9-13 8-12 5-11 3-7 1h-19l-15-3-17-7-13-9-13-13-9-14-6-14-3-14v-25l5-19 9-17 11-13 12-10 17-9 14-4z" fill="#FFFFFD"/>
<path transform="translate(653,1063)" d="m0 0h119l75 1v1l-25 4-17 5-13 7-8 8-2 3-1 6 3 9 10 15 3 7v10l-4 6-9 6-16 6-28 7-8 1-13-11-14-12-28-28-7-8-11-13-12-16-8-11 4-2z" fill="#128C48"/>
<path transform="translate(939,1740)" d="m0 0h94l45 3 48 5 62 9 62 11 12 3-1 14-1 8-9-1-29-6-30-6-37-6-30-5-51-6-41-3-33-1h-30l-33 1-35 2-33 3-26 3-27 4-37 7-37 9-16 5h-3l-3-20 1-4v2l13-4 29-7 37-7 44-6 41-4 31-2z" fill="#FE802C"/>
<path transform="translate(105,1178)" d="m0 0 7 4 10 9 6 10 1 6h2l1-6 7-9 8-5 4-1 7 7 6 9 2 6v7l-9 7-6 9-4 9v8l4 15 7 13 2 2v15l3 12 4 10h-15l-17-3-16-5-12-5-17-10-13-10-10-9-18-18-3-4 1-5 7-7 9-5 9-3-10-18-4-11-1-5v-13l8-2h9l15 3 6 1z" fill="#128C48"/>
<path transform="translate(1159,931)" d="m0 0 9 2 57 21 45 16 30 11 11-1 37-6 5 1 37 15 13 5 1 5-5 15-3 1-47-14h-10l-304 48h-6v-1l169-33 93-18 1-1-61-18-64-19h-9l-110 24-37 8-1-2v-17l8-3 83-23z" fill="#128C48"/>
<path transform="translate(1298,186)" d="m0 0h18l27 2 22 4 17 5 15 6 15 9 12 11 7 9 4 10 1 10-3 10-7 8-10 5-8 2h-20l-21-5-19-8-19-11-19-13-34-24-19-12-18-10 3-2 27-4z" fill="#FECB00"/>
<path transform="translate(1309,429)" d="m0 0 9 3 18 10 17 12 14 12 21 21 11 14 12 16 13 21 13 24 13 29 12 34 8 29 6 27 5 34 3 34v56l-3 35-4 28-7 33-7 26-12 36-1 2-9-3 11-39 7-30 5-28 4-33 1-14v-55l-3-32-5-29-6-27-10-33-10-26-13-29-12-23-13-22-20-30-14-19-11-14-11-13-12-14-14-15-6-6z" fill="#FCFEFC"/>
<path transform="translate(659,147)" d="m0 0h11l2 19-7 6-17 12-16 12-10 9-9 9-9 14-5 12-1 3-6-2-12-5-10-2-13 1-9 4-8 6-8 9-8-1-5-1h-14l-10 3-9 6-7 8-8 16-5 19h-2l-2-16v-10l3-19 6-16 7-13 11-14 12-12 13-10h2l4 15 2 10h2l2-4 10-13 11-12 11-11 13-10 12-8 2 1 4 14v4l11-7 15-10 16-8 13-5z" fill="#128C48"/>
<path transform="translate(705,429)" d="m0 0 2 1-15 16-11 12-9 11-11 13-10 13-13 18-18 27-13 22-14 27-9 19-11 28-10 31-7 28-5 27-3 25-1 13v61l3 31 4 27 9 41 12 42-9 3-9-25-8-27-7-29-6-36-3-27-1-15v-59l3-33 6-39 7-30 10-33 8-21 11-25 14-27 12-19 10-14 11-14 9-10 11-12 11-10 17-13 20-12z" fill="#FCFEFC"/>
<path transform="translate(324,1139)" d="m0 0h13l15 4 13 3 2 1 12 49 10 34 9 26 12 30 12 27 17 34 8 14-1 2-23-9-36-12-30-9v-3l9-7 8-8 9-14 4-13v-10l-4-13-6-11-8-10-11-12-10-10v-12l-3-14-4-8-7-6-7-3-5-1h-26l-5-3-3-9-4-5-20-10v-1l42-6z" fill="#128C48"/>
<path transform="translate(836,959)" d="m0 0h8l66 19 1 1-1 10-7 37-3 19-8-1-93-24-81-21-2-2 50-16 64-20z" fill="#01ADCF"/>
<path transform="translate(88,1386)" d="m0 0 3 1 7 8 15 12 10 6 17 9 14 6 10 4 19 5 18 2 67 4 46 3 35 3 45 5 47 7 44 8 30 7 17 4 8 7 11 11v1l-10-1-54-12-32-6-38-5-32-2-103-2-35-2-34-4-27-5-24-7-22-10-19-12-9-8-12-16-9-15z" fill="#FE802D"/>
<path transform="translate(1900,1421)" d="m0 0 1 2-10 14-8 10-11 12-13 8-21 11-20 7-20 5-32 5-24 2-19 1h-139l-31 2-33 4-47 8-31 6-2-1 18-18 26-5 27-5 35-5 34-4 42-4 48-3 53-2 61-2 21-2 23-6 19-7 17-8 12-7 16-11z" fill="#FE802D"/>
<path transform="translate(214,1532)" d="m0 0 36 6 36 4 71 5-5 5-7 8-7 12-5 10-24 10-9 5-5 4-5 9v14l4 11 13 26v4l-26-2-16-4-10-5 1-3 15-10h2v-2l-4-2-11-8-10-8-14-12-5-5v-2l22-13-20-20-9-13-7-15z" fill="#128C48"/>
<path transform="translate(1849,520)" d="m0 0h2l14 32 10 26 9 28 5 23 2 18v17l-2 15-4 11-6 10-7 6-6 3-10 1-11-4-6-5-7-11-4-11-3-19v-31l4-30 7-31z" fill="#FECB00"/>
<path transform="translate(841,931)" d="m0 0 9 2 66 25-1 8-3 13-16-4-52-15h-8l-47 15-64 20-7 3 101 26 80 21v2l-13-2-174-35-39-8h-9l-45 14h-2l-6-18v-2l49-21 5-1 41 7 7-1 105-40z" fill="#128C48"/>
<path transform="translate(1579,754)" d="m0 0 4 5 5 11 3 12v17l-4 20-7 24-9 25-21 49-14 32-14 28-10 16-9 12-9 10-8 8-5 3-5-1-1-1v-9l7-20 11-24 12-25 10-22 9-24 9-29 20-76 6-16 8-13 10-11z" fill="#FDFEFC"/>
<path transform="translate(1925,1371)" d="m0 0 2 1-6 15-7 14v3l-11 6-18 8-25 6-32 5-30 4-45 4-65 4-39 2-39 3-34 4-34 5-27 5-21 4-3-1 12-14 3-3 46-10 44-8 43-6 42-4 102-7 78-7 20-4 13-5 11-6 11-9 5-4z" fill="#FE802C"/>
<path transform="translate(69,1337)" d="m0 0 16 16 13 9 14 6 17 4 84 10 95 9 40 5 38 6 48 10 48 12 8 3 12 16-2 1-30-7-33-7-37-6-40-5-45-4-61-5-38-4-42-6-22-4-27-5-16-5-11-4-11-6-6-4-8-19z" fill="#FE802C"/>
<path transform="translate(436,754)" d="m0 0 6 4 9 11 8 16 5 15 19 72 11 35 9 22 14 30 13 27 9 23 2 8v7l-2 2-6-1-10-9-9-9-13-18-14-25-15-32-15-35-14-34-9-25-7-26-2-10v-22l4-13z" fill="#FDFEFC"/>
<path transform="translate(1534,200)" d="m0 0 5 2 19 13 16 12 11 9 10 9 8 7 13 14 11 15 9 16 5 15 1 5v13l-3 10-6 8-7 4-3 1h-11l-10-4-9-7-7-7-12-18-13-25-10-26-8-27-9-38z" fill="#FECB00"/>
<path transform="translate(29,822)" d="m0 0 4 4 7 8 12 9 18 10 33 15 26 10 28 10 43 14 29 10 29 12 29 14 23 12 25 15 20 13v23l-5-5-20-12-17-10-20-11-16-8-17-7-11-5-33-11-25-8-16-5-22-7-18-6-21-8-15-6-32-16-16-9-14-9-7-7-6-10 1-7z" fill="#FE802D"/>
<path transform="translate(1389,162)" d="m0 0 11 1 26 6 26 8 21 9 19 10 14 10 10 9 8 8 9 14 4 9 1 5v13l-4 9-8 7-9 3h-7l-13-4-12-7-15-14-11-11-11-14-16-21-9-12-9-11-11-12-7-8-7-6z" fill="#FECB00"/>
<path transform="translate(1973,857)" d="m0 0h2l4 13-1 7-5 8-4 5-11 8-12 6-6 4-28 14-22 10-22 8-36 12-23 7-31 10-18 6-16 6-13 6-32 16-14 8-17 10-11 7h-2v-20l22-14 24-14 27-14 19-9 27-11 43-15 49-16 29-11 23-10 25-12 15-10 10-9z" fill="#FE802D"/>
<path transform="translate(1685,598)" d="m0 0 3 4 15 26 9 17 10 23 6 18 4 20v21l-3 12-6 10-8 7-7 3h-14l-10-5-6-5-6-9-4-11-3-21v-19l3-24 6-28 10-37z" fill="#FECB00"/>
<path transform="translate(20,862)" d="m0 0h1l3 12 7 14 8 10 13 13 2 1v2l4 2 10 7 17 9 16 7 20 7 29 9 20 5 18 5 27 8 31 11 12 5 13 5 11 5 13 6 25 12 10 6 11 6 14 9 1 21-16-8-51-27-27-12-28-10-87-26-27-9-27-11-19-9-18-11-14-10-9-8-7-11-3-6v-3l-3-1-1-8v-22z" fill="#FE802D"/>
<path transform="translate(1305,364)" d="m0 0 11 2 28 8 29 10 23 10 23 12 12 8 10 8 10 9 9 11 6 12 1 3v14l-4 6-5 3-4 1h-9l-13-4-14-7-21-14-13-10-11-9-12-11-3-2v-2l-4-2-17-17-7-8-9-10-9-11-7-9z" fill="#FECB00"/>
<path transform="translate(1302,1879)" d="m0 0h24l24 4 22 6 45 15v2l-27 15-19 10-25 10-20 5-7 1h-18l-16-4-9-6-7-7-4-9-1-4v-10l3-9 9-10 6-4 13-4z" fill="#FECB00"/>
<path transform="translate(1982,897)" d="m0 0h2v30l-1 5-2 1-7 14-10 11-15 11-15 9-19 10-27 11-22 8-43 13-44 13-30 10-30 13-34 17-18 10-16 8 1-17 3-5 10-6 11-7 12-6 19-10 15-7 16-7 30-12 26-9 21-6 38-10 23-7 15-5 14-5 15-7 17-9 8-6h2v-2l11-9 5-6h2l2-4 6-8 6-12z" fill="#FE802D"/>
<path transform="translate(1766,418)" d="m0 0 4 5 15 24 14 25 10 21 7 19 5 21 1 9v14l-3 13-6 10-8 6-3 1h-11l-10-5-7-7-6-11-5-15-3-16-2-26 1-30 6-56z" fill="#FECB00"/>
<path transform="translate(1027,1064)" d="m0 0 129 1 15 5 11 7 6 8v9l-7 12-7 10-2 5v10l5 5 11 5 25 6 60 9 9 2-4 5-19 14-16 11h-2l1 4v10l-29-11-30-12-24-11-13-8-8-7-3-5v-8l6-12 7-9 12-15 3-6v-7l-3-6-8-7-11-5-18-4-26-2h-58l-12-1z" fill="#FEFEFC"/>
<path transform="translate(264,421)" d="m0 0 5 2 12 9 11 11 7 10 6 11-1 5-5 12-1 9-10-3h-9l-5 3-10 10-13 7-6 5-3 5-5 23-4 32-2 3-8-7-9-12-6-12-5-17-2-14v-31l2-17h16l12 3 9 6 4 4 2-21 6-18 9-14z" fill="#128C48"/>
<path transform="translate(1206,199)" d="m0 0 6 2 24 14 18 12 12 9 11 9 18 18 10 14 8 16 3 10v17l-5 10-7 6-3 1h-13l-12-6-9-8-11-14-10-14-12-22-9-19-10-26-9-26z" fill="#FECB00"/>
<path transform="translate(399,844)" d="m0 0 5 2 9 7 9 10 9 16 15 33 17 35 11 21 12 19 13 18 14 19 12 18 8 14 1 3v7l-5 1-11-6-10-8-12-11-10-11-13-17-16-23-29-44-8-13-9-16-8-16-7-17-2-8v-18l4-13z" fill="#FDFEFC"/>
<path transform="translate(1615,844)" d="m0 0h2l4 11 1 6v14l-3 12-9 21-11 21-15 24-24 36-13 19-12 16-11 13-7 8-8 7-10 8-10 6-6 1-1-1v-8l6-12 12-18 13-18 14-19 10-15 14-25 17-35 12-26 9-19 9-13 9-9z" fill="#FCFEFC"/>
<path transform="translate(847,1064)" d="m0 0h49v2l-31 2-20 3-15 5-12 7-7 8-1 3v7l5 8 8 8 8 7 10 9 7 9 1 8-4 10-9 10-9 8-17 11-14 8-26 12h-2v-8l2-10-16-10-19-14v-3l30-7 17-6 10-6 4-6v-10l-6-12-7-10-3-10 2-6 7-8 8-6 11-5 19-5z" fill="#FEFEFC"/>
<path transform="translate(1017)" d="m0 0 7 6 3 2v2l4 2 32 32 64 1 2 65 44 44-6 7-38 38-2 65-64 1-44 44-4-2-42-42-65-1-1-65-44-44 6-7 38-38 1-64 1-1 64-1zm0 10-12 11-30 30-60 1-1 60-39 39-2 5 41 41 1 60 20 1 41 1 41 41 7-6 20-20 8-7 8-8 41-1 20-1 1-60 41-41-2-4-39-39-1-61-60-1-6-6h-2v-2l-8-7-26-26z" fill="#FECC00"/>
<path transform="translate(1658,305)" d="m0 0 7 6 13 12 19 19 7 8 13 16 12 18 8 16 4 10 3 15-1 12-3 8-6 7-6 3-10 1-11-4-10-9-7-9-9-17-8-22-6-24-5-29-4-30z" fill="#FECB00"/>
<path transform="translate(1021,873)" d="m0 0h18l-2 4-11 7-2 3v7l7 14 39 1-2 2-33 8-12 5-7 5-6 10-4 13-4 20-2-3-3-7-4 13-4-4-1-4h-2l-2 6-3 1-4-9-4 8h-2l-5-10-2-1-1 9-2 5-2-3-2-5v-3l-3 3-3 5h-2l-3-8-4 10-3-3-2-6h-2l-2 6-2 2-1-8-6 5 4-18 9-35 7-3 18-3 13-1h12l15 1 12-19-3 1-7 4h-2l-1-6-7 4-3 1v-5l-7 6h-2l1-7-8 7-3 1 1-7-11 8-2-1 8-10 23-9 23-6z" fill="#FCFEFC"/>
<path transform="translate(1525,602)" d="m0 0 27 8 26 9 21 9 20 11 16 12 12 12 7 11 2 6v14l-3 6-5 5-6 3-4 1h-8l-13-4-11-6-13-10-12-11-8-8-9-11-13-17-11-16-15-22z" fill="#FECB00"/>
<path transform="translate(1475,377)" d="m0 0 5 2 18 14 13 10 14 12 16 15 7 8 12 16 8 16 4 12v15l-3 8-5 5-4 3-3 1h-12l-9-4-8-6-10-11-11-18-10-21-12-36-10-37z" fill="#FECB00"/>
<path transform="translate(1603,440)" d="m0 0 8 1 36 9 30 10 18 8 14 8 12 9 11 11 6 10 2 8v7l-3 8-5 5-8 4h-16l-14-5-16-10-16-13-21-21-9-11-14-17-12-16z" fill="#FECB00"/>
<path transform="translate(1499,360)" d="m0 0h62l26 3 21 5 16 6 12 7 10 9 5 9 1 4v8l-4 8-8 7-11 3h-10l-15-3-19-7-23-12-21-14-19-14-14-11-9-7z" fill="#FECB00"/>
<path transform="translate(1742,661)" d="m0 0 6 2 32 16 22 13 17 12 14 12 9 9 10 14 5 11 2 12-2 9-4 6-6 5-3 1h-14l-10-4-11-8-15-15-12-16-12-20-12-23-16-34z" fill="#FECB00"/>
<path transform="translate(450,1549)" d="m0 0 36 2 46 5 39 6 34 7 18 5 24 14 29 15 42 19 8 16 1 5-19-9-15-4h-20l-13 4-4-1-8-6-12-3-6-1-4-17-5-12-6-9-7-1h-20l-7 3-4 2-5-6-9-5-6-2h-11l-9 4-4 6-5-2-14-8-14-5-17-3h-15l-12-12-2-1v-2h-2v-2h-2z" fill="#128C48"/>
<path transform="translate(1752,1622)" d="m0 0h6l-6 8-12 14-9 10-12 13-8 7-9 8-16 11-16 8-13 4-13 1-9-2-8-5-5-6-2-6v-7l3-9 8-10 11-8 15-8 18-7 27-7 31-6z" fill="#FECA00"/>
<path transform="translate(1605,1730)" d="m0 0h46l-5 5-12 11-14 11-13 10-17 11-17 9-17 6-16 3h-9l-12-3-9-6-5-8-1-10 4-10 4-5 10-7 13-6 21-6 19-3z" fill="#FECB00"/>
<path transform="translate(1438,1815)" d="m0 0h40l33 4 27 4 3 2-21 13-19 11-27 13-21 7-18 3h-16l-12-3-10-6-6-8-1-3v-12l6-10 10-7 15-5z" fill="#FECB00"/>
<path transform="translate(1673,544)" d="m0 0 5 1 24 10 21 10 21 12 15 10 14 11 12 11 8 10 8 14 3 9v12l-4 7-6 3h-9l-13-5-14-10-12-11-8-7-9-9-7-8-12-14-14-19-16-24-7-12z" fill="#FECB00"/>
<path transform="translate(1448,288)" d="m0 0h21l23 2 22 5 16 7 9 7 6 7 2 4v10l-6 7-11 4h-21l-24-4-24-6-27-9-24-10-25-12-5-3v-1l31-5 19-2z" fill="#FECB00"/>
<path transform="translate(1598,718)" d="m0 0 10 5 27 18 14 10 13 11 10 9 11 12 9 14 5 11 2 7v11l-3 8-4 5-8 4h-10l-10-4-11-8-8-9-10-14-9-16-10-21-11-30-7-20z" fill="#FECB00"/>
<path transform="translate(357,668)" d="m0 0 2 2 2 9 1 17 20-6 23-4 10-1h20l-2 6-15 31-12 28-9 3-19 4h-3l1-6v-11l-5-14-1-3-2 1-18 2-15 5-10 7-3 3-2-1-1-10-4-4-2-1h-9l6-7 9-11 7-12 4-11 1-5 12-2 11-6z" fill="#128C48"/>
<path transform="translate(115,1047)" d="m0 0 26 5 44 11 33 11 26 11 64 30 28 11-1 2-43 7-4-1-6-8-9-7-16-7-9-4-9-5-7-3h-6l-10 6-4 6-8-1h-15l-9 4-3-1-7-13-8-10-11-11-13-9-10-6-8-10z" fill="#128C48"/>
<path transform="translate(1916,673)" d="m0 0h2l6 38 2 20v35l-3 19-5 15-7 12-7 6-6 3-8 1-9-3-7-8-4-11v-18l4-20 7-21 11-24 14-26z" fill="#FECA00"/>
<path transform="translate(1595,486)" d="m0 0 5 5 15 20 12 18 11 19 8 17 5 15 3 17v9l-3 12-4 6-6 5-5 2h-8l-9-4-9-9-7-14-5-17-3-16-2-28v-19l1-30z" fill="#FECA00"/>
<path transform="translate(1437,499)" d="m0 0 11 2 36 9 24 8 20 9 16 10 13 12 6 9 3 8v10l-4 8-8 6-4 1h-13l-12-4-14-8-14-11-12-11-15-16-7-8-10-12-11-14-5-6z" fill="#FECB00"/>
<path transform="translate(1591,1578)" d="m0 0h17l11 3 1 4-7 26-11 32-8 18-8 15-9 10-10 6-4 1h-9l-6-3-6-7-2-6v-12l4-13 11-23 10-19 13-24 5-6z" fill="#FECB00"/>
<path transform="translate(1008,1053)" d="m0 0h5l11 29 3 13v8l-3-4-6-11-5-2-1 1v18l-4 2-1-1-2-16h-3l-1 3-1 17-5 1-1-18-3 1-1 19h-5l-1-18-4-2v16l-1 2h-4l-1-17-4 2-1 17-4 2-1-1-1-18h-3l-1 17-4 1-1-17-3-1-1 19h-4v-18l-3 1-2 8-2 9-5-1 1-8 2-11-4 2-4 16-4 2-1-4 2-13-3 1-2 13-1 2-3-1v-18l-4 2-3 8-3 10-2-4v-27l3-26 15 1h38l30-3z" fill="#FDFEFC"/>
<path transform="translate(1383,1066)" d="m0 0v3l-16 21-11 14-11 13-9 11-10 11-7 8-12 13-31 31-8 7-7 6-7 35-7 27-10 30-13 27-10 15-11 12-8 8-15 10-16 7h-1v-22l1-15 16-8 11-7 14-12 11-13 11-18 8-17 7-21 6-25 4-25 11-9 13-10 14-12 10-9 8-7 16-15 16-16 7-8 7-7 7-8 9-10 9-11z" fill="#FBFEFC"/>
<path transform="translate(1961,1214)" d="m0 0h2l-3 11-10 26-9 20-10 18-10 14-8 9-13 10-9 4-10 1-9-3-6-7-2-8 1-10 5-12 10-13 7-8 8-7 13-11 27-18 23-14z" fill="#FECA00"/>
<path transform="translate(1794,1181)" d="m0 0h2l-2 6-8 16-11 21-14 21-8 10-9 10-12 10-11 6-9 3h-9l-8-3-6-7-1-3v-13l7-14 11-12 13-11 15-10 18-10 35-17z" fill="#FECB00"/>
<path transform="translate(1411,1740)" d="m0 0 1 3-12 29-12 25-9 15-9 12-9 10-9 8-10 6-6 2h-12l-8-4-5-7-1-4v-8l3-10 7-11 9-10 12-12 16-12 21-13 25-14z" fill="#FECB00"/>
<path transform="translate(1819,1133)" d="m0 0 3 4 13 26 11 27 6 20 3 16v23l-4 13-6 8-7 4-8 1-8-3-5-4-6-10-4-13-2-17v-17l3-27 9-44z" fill="#FECA00"/>
<path transform="translate(1970,1104)" d="m0 0h2l-2 11-8 31-9 26-8 17-7 11-8 10-8 8-12 6h-13l-7-4-5-8-1-4v-8l3-11 5-10 10-14 12-14 10-10 11-9 14-12 12-9z" fill="#FECB00"/>
<path transform="translate(1347,1693)" d="m0 0h18l31 3 38 6-4 4-18 10-23 12-25 10-19 5-6 1h-23l-10-3-8-6-4-7-1-7 3-9 5-5 8-6 11-4 16-3z" fill="#FECA00"/>
<path transform="translate(1521,1661)" d="m0 0h2l-3 11-13 33-8 17-10 17-10 13-13 13-10 6-6 2h-13l-8-5-4-7-1-4v-7l4-12 7-11 11-12 12-12 17-13 23-15z" fill="#FECB00"/>
<path transform="translate(1328,289)" d="m0 0 10 3 33 15 18 10 18 12 11 9 11 10 8 10 6 10 3 9v12l-4 6-7 3-12-2-11-6-11-9-10-9-18-18-9-11-12-15-18-27-6-10z" fill="#FECB00"/>
<path transform="translate(384,925)" d="m0 0 6 2 11 7 8 8 12 17 18 27 14 20 13 16 7 8 9 10 7 7 7 8 16 16 7 8 4 6v5h-7l-16-8-12-9-11-9-16-15-9-9-7-8-16-17-9-10-11-13-14-19-9-16-3-9v-19z" fill="#FCFEFC"/>
<path transform="translate(1629,925)" d="m0 0h3l1 5v17l-4 12-11 18-11 14-9 11-11 12-7 8-16 17-25 25-11 9-14 10-14 7h-7v-6l7-9 18-18 7-8 12-12 7-8 12-14 14-19 21-31 13-19 9-10 7-6z" fill="#FCFEFC"/>
<path transform="translate(419,1583)" d="m0 0 10 2 8 4 10 9 9 13 2 17-18 3-9 4-5 2 1 13 5 14 9 13 3 3-3 10-6 9-7 7-11 7-7 2-2-8v-19l4-15 1-3-16-8-12-9-10-9-7-9 4-3 13-4 6-1 29-1-4-14v-17z" fill="#FECA00"/>
<path transform="translate(269,1252)" d="m0 0 7 4 13 11 9 12 4 11 1 8 7-6 7-3 5-1h20v10l-3 9-9 11-10 8h-26l-39-1-19-1-15-8-5-4-4-5 2-4 8-4 3-1h16l11 3 14 7 3 1-5-16-1-5v-15l4-16z" fill="#FECA00"/>
<path transform="translate(641,1720)" d="m0 0h14l16 4 11 5 19 67 1 6-8 6-12 6-14 3h-17l-12-2-1-7 4-13 7-11 10-11 3-5-11-7-8-8-9-14-5-13v-2l7-3z" fill="#FECA00"/>
<path transform="translate(920,985)" d="m0 0 16 2 21 2h44l1 1 8 47-1 2-7-9-1 9-4-2-3-3-2 10-3-4-3-6-3 8h-2l-4-8-3 10h-2l-4-9-5 8-6-8-5 7-3-4-2-5-2 4-1 3h-2l-2-9h-2l-2 6-2 2-3-7-3 4-3 3-4-9-5 6h-1v-7h-2l-1 5-1-4 8-43z" fill="#FDFEFC"/>
<path transform="translate(536,296)" d="m0 0 5 5 8 16 4 15v7l17-7 14-4 6-1h12l-5 14-7 12-9 10-5 5h-2l12 12 4 10v4l-21 2-19 5-7 2-3-11-3-2 2-5 7-8 2-4v-8l-7-3-16-2-3-6-1-5v-22l3-12 7-14z" fill="#FECA00"/>
<path transform="translate(1642,1196)" d="m0 0 2 2 12 36 6 25 2 17v15l-3 16-6 12-8 6-2 1h-10l-8-5-6-10-2-8v-27l3-18 7-25 12-35z" fill="#FECB00"/>
<path transform="translate(1757,748)" d="m0 0 2 4 5 33 1 11v33l-3 17-5 13-6 9-8 6-3 1h-9l-7-4-5-7-2-7v-17l4-19 7-19 12-25 13-23z" fill="#FECB00"/>
<path transform="translate(376,988)" d="m0 0 12 4 11 8 13 13 7 8 11 12 7 8 12 13 8 8 2 1v2l4 2 10 9 42 33 5 4 2 3v5l-5 1-15-5-17-9-12-8-16-12-16-13-17-14-14-12-20-20-9-12-4-8-2-11v-9z" fill="#FCFEFC"/>
<path transform="translate(1639,988)" d="m0 0h1v15l-3 10-6 9-12 14-14 14-11 9-15 13-10 8-14 11-15 11-20 12-11 5-11 3-4-1-1-3 4-6 16-13 13-10 10-8 11-9 20-18 15-16 9-10 7-8 11-12 5-6 12-9 9-4z" fill="#FCFEFC"/>
<path transform="translate(1462,1623)" d="m0 0h49l-5 5-14 12-20 15-19 11-11 5-14 4-13 1-10-2-6-4-5-6-2-9 4-10 9-8 13-6 18-5z" fill="#FECB00"/>
<path transform="translate(1876,1080)" d="m0 0h2l6 15 3 9 1 6v9l-3 10-6 11-7 8-6 3-7 1-10-3-12-9-13-13-10-13-4-9-1-5 10-4 32-10 19-5z" fill="#FECB00"/>
<path transform="translate(1777,1110)" d="m0 0h9l8 2-4 18-7 20-8 16-9 12-7 7-10 5-9 1-8-3-5-5-3-6-1-5v-7l3-12 8-16 10-15 4-5 17-5z" fill="#FECA00"/>
<path transform="translate(1371,1582)" d="m0 0h19l3 1-4 18-7 21-10 19-9 11-9 7-7 3h-11l-6-3-5-6-2-5v-16l5-14 9-16 7-10 8-5z" fill="#FECB00"/>
<path transform="translate(345,565)" d="m0 0 5 5 8 16 4 17v6h24l15 3 8 4-5 6-13 8-16 7-17 4-3-4-7-11-9-8-8 1-12 6-6 6-11-2-12-6-7-7-4-9-1-5h16l27 3h5l6-21 7-14z" fill="#FECA00"/>
<path transform="translate(630,1064)" d="m0 0 5 4 9 11 13 14 7 8 12 13 30 30 8 7 12 11 11 9 16 13 10 7 1 23 2 16 5 21 8 19 8 14 11 14 9 10 8 7 4 4-1 36-7-6-10-10-10-13-11-18-8-17-9-27-4-17-4-29-2-18-16-15-8-7-34-34-7-8-12-13-9-11-12-14-13-17-12-15z" fill="#FBFDFC"/>
<path transform="translate(1e3 337)" d="m0 0h10v348l-1 1h-9z" fill="#FECC00"/>
<path transform="translate(1761,1269)" d="m0 0h2l-1 10-5 16-8 16-8 11-9 11-10 11-3 4-15 3-8 1h-21l-7-2 2-10 7-11 9-9 14-11 17-12 25-16z" fill="#FECA00"/>
<path transform="translate(979,337)" d="m0 0h5l5 109 10 229v11h-10l-15-344v-4z" fill="#FECC00"/>
<path transform="translate(1052,340)" d="m0 0h9l-1 19-28 320-1 8h-8l-2-2 30-343z" fill="#FECC00"/>
<path transform="translate(951,340)" d="m0 0h7l2 17 28 319v10l-1 1h-8l-2-16-28-320v-10z" fill="#FECC00"/>
<path transform="translate(1026,337)" d="m0 0 9 1v21l-14 321-1 6h-9v-16l14-321z" fill="#FECC00"/>
<path transform="translate(1077,344)" d="m0 0h9v9l-44 334-1 1h-7l-2-1 2-19 42-319z" fill="#FECC00"/>
<path transform="translate(928,344)" d="m0 0h5l38 288 7 55-2 1h-8l-21-158-24-183 1-2z" fill="#FECC00"/>
<path transform="translate(1102,350)" d="m0 0 8 1 1 1-1 11-53 301-5 26-9-1 1-12 52-294z" fill="#FECC00"/>
<path transform="translate(903,350)" d="m0 0h5l52 295 7 39v5l-9 1-2-8-52-295-6-35z" fill="#FECC00"/>
<path transform="translate(880,357)" d="m0 0h3l9 39 35 158 30 135-1 2-9 1-73-328 1-5z" fill="#FECC00"/>
<path transform="translate(1127,357)" d="m0 0 5 1 4 2-4 20-57 257-12 54-5 1-5-1 2-12 30-135 39-176z" fill="#FECC00"/>
<path transform="translate(1309,1613)" d="m0 0 6 1-3 15-7 21-8 17-8 11-6 7-9 6-6 2h-9l-8-4-5-7-1-3v-17l5-13 5-9 41-20z" fill="#FECB00"/>
<path transform="translate(1179,379)" d="m0 0 6 2 2 1-1 7-23 70-16 50-23 70-16 50-23 70-9-3 3-12 24-73 16-50 22-67 16-50 21-64z" fill="#FECC00"/>
<path transform="translate(828,379)" d="m0 0 4 1 16 50 23 70 16 50 23 70 16 50 8 24-1 3-8 2-12-36-23-70-16-50-23-70-16-50-12-37v-4z" fill="#FECC00"/>
<path transform="translate(1201,391)" d="m0 0 5 2 3 2-2 9-26 69-19 51-27 72-22 59-17 45-1 2-7-1-2-1 3-10 15-41 26-69 26-70 24-64 20-53z" fill="#FECC00"/>
<path transform="translate(807,391)" d="m0 0h2l51 136 16 43 27 72 16 43 5 13v2l-9 3-13-34-26-70-26-69-26-70-21-56-2-5 1-5z" fill="#FECC00"/>
<path transform="translate(966,338)" d="m0 0h8l1 4 14 321v22h-1l-7-77-23-263v-5l-2-1z" fill="#FFFFFD"/>
<path transform="translate(1035,338)" d="m0 0 17 1-5 60-25 286h-2l3-74z" fill="#FFFFFD"/>
<path transform="translate(921,344)" d="m0 0h7l-4 3 36 274 8 60v7l-2-4-52-294-6-34v-6l-9 1 1-2z" fill="#FEFEFC"/>
<path transform="translate(947,340)" d="m0 0 4 1h-2l16 181 14 160-1 4-1-1-44-334v-7h-5v-1z" fill="#FFFFFD"/>
<path transform="translate(1222,405)" d="m0 0 4 1 4 3-1 6-13 30-17 40-19 45-23 54-17 40-19 45-15 35-3 3-7-3 1-5 23-54 19-45 43-101 19-45z" fill="#FECC00"/>
<path transform="translate(786,404)" d="m0 0 2 1 19 45 23 54 20 47 19 45 23 54 17 40 5 13-8 4-3-4-13-31-17-40-19-45-23-54-34-80-18-43 4-4z" fill="#FECC00"/>
<path transform="translate(1061,341)" d="m0 0 13 1 7 1-4 1-1 13-43 326-2 3 1-18 28-320z" fill="#FEFEFC"/>
<path transform="translate(1086,345)" d="m0 0 10 1 13 3 1 2-8-1-1 10-57 323-2 3 1-14 42-319z" fill="#FEFEFC"/>
<path transform="translate(984,337)" d="m0 0h16v348h-1l-1-10-14-320z" fill="#FFFFFD"/>
<path transform="translate(1243,419)" d="m0 0 5 3 3 3-16 34-16 33-13 28-19 39-13 28-18 37-13 28-19 39-9 19-3 1-6-3 1-5 17-35 13-28 18-37 13-28 18-37 13-28 18-37 13-28 12-25z" fill="#FECC00"/>
<path transform="translate(765,419)" d="m0 0h2l20 41 13 28 18 37 13 28 18 37 13 28 17 35 13 28 12 25v2l-6 3h-3l-14-29-13-28-18-37-13-28-18-37-13-28-19-39-13-28-15-31 1-3z" fill="#FECC00"/>
<path transform="translate(1633,1048)" d="m0 0h2v9l-4 11-6 8-8 8-11 9-15 11-26 17-18 11-14 8-19 8-10 3h-9l-1-4 5-5 17-11 24-15 16-11 16-13 10-9 8-7 10-9 11-9 9-6 8-3z" fill="#FCFEFC"/>
<path transform="translate(381,1048)" d="m0 0 10 2 10 5 10 8 13 12 8 7 10 9 14 11 15 11 24 15 21 13 5 4 1 5-1 1h-8l-17-5-17-8-22-13-20-13-12-8-16-12-11-9-11-11-5-10-1-4z" fill="#FCFEFC"/>
<path transform="translate(746,435)" d="m0 0h2l14 27 12 22 13 25 12 22 13 25 12 22 14 27 12 22 12 23 12 22 14 27 6 11v3l-6 3-3-1-14-27-12-22-13-25-12-22-13-25-12-22-13-25-12-22-13-25-12-22-13-25-6-11 2-4z" fill="#FECC00"/>
<path transform="translate(1262,435)" d="m0 0 4 2 4 5-15 28-18 34-15 28-18 34-17 32-15 28-18 34-17 32-13 24-6-2-3-3 51-96 15-28 12-23 12-22 12-23 12-22 14-27 12-22z" fill="#FECC00"/>
<path transform="translate(1010,337)" d="m0 0h16v12l-14 321-1 14h-1z" fill="#FFFFFD"/>
<path transform="translate(727,452)" d="m0 0 4 2 15 26 15 25 15 26 15 25 14 24 17 29 15 25 15 26 9 15 17 29 7 12v2l-8 4-16-27-17-29-16-27-17-29-15-25-14-24-13-22-17-29-15-25-14-24-1-4z" fill="#FECC00"/>
<path transform="translate(1280,452)" d="m0 0 4 2 4 5-16 27-17 29-26 44-17 29-16 27-17 29-16 27-17 29-13 22-8-4 1-4 9-16 26-44 17-29 16-27 17-29 39-66 17-29z" fill="#FECC00"/>
<path transform="translate(1969,1034)" d="m0 0 1 2-7 26-9 21-7 11-9 10-8 6-9 3-9-1-5-3-6-7-2-9 1-11 4-11 22-12 29-17z" fill="#FECA00"/>
<path transform="translate(711,469)" d="m0 0 4 4 10 16 15 23 13 20 11 17 65 100 11 17 26 40 10 15-1 3-5 3-4-2-14-22-18-27-10-16-15-23-39-60-11-17-52-80-2-5z" fill="#FECC00"/>
<path transform="translate(1298,469)" d="m0 0 5 4 2 4-12 18-65 100-11 17-39 60-11 17-15 23-10 15-5-2-3-2 2-5 13-20 11-17 13-20 11-17 52-80 11-17 39-60z" fill="#FECC00"/>
<path transform="translate(1780,772)" d="m0 0 12 7 11 9 10 9 8 9 10 15 9 18-1 5-7 7-8 5-8 2-12-1-7-3-6-17-4-16-7-44z" fill="#FECA00"/>
<path transform="translate(1314,488)" d="m0 0 6 5-1 5-12 16-13 19-12 16-11 16-13 18-12 17-13 18-12 17-13 18-24 34-13 18-12 17-8 11-4-1-4-3 2-5 13-18 12-17 13-18 13-19 12-16 13-19 12-16 13-19 12-16 13-19 12-16 13-19 12-16z" fill="#FECC00"/>
<path transform="translate(694,488)" d="m0 0 4 2 12 17 13 18 14 20 13 18 12 17 13 18 12 17 13 18 12 17 13 18 14 20 13 18 12 17 3 4v2l-6 4-4-2-13-19-12-16-13-19-12-16-13-19-12-16-13-19-11-15-12-17-13-18-12-17-13-18-12-17-6-8 1-5z" fill="#FECC00"/>
<path transform="translate(1705,1149)" d="m0 0h2v32l-4 24-5 13-4 5-3 2h-8l-6-4-7-8-6-11-3-7v-21l1-12 9-4 24-7z" fill="#FECB00"/>
<path transform="translate(1785,1258)" d="m0 0 5 4 9 14 8 16 10 25 8 23-5 2-20 3h-18l-7-1-1-1v-25l3-25 7-34z" fill="#FECA00"/>
<path transform="translate(864,820)" d="m0 0 4 5 7 7 11 7 15 5 12 2h30l27-2h31l16 3 13 5 11 8 2 3-14-1h-48l-28 2h-41l-16-3-10-5-9-8-8-12-5-13z" fill="#FDFEFC"/>
<path transform="translate(1328,507)" d="m0 0 4 2 3 6-33 42-14 18-11 14-14 18-11 14-14 18-11 14-28 36-22 28-14 18-4 5-4-2-4-4 12-15 10-13 11-14 28-36 11-14 14-18 11-14 14-18 22-28 28-36 11-14z" fill="#FECC00"/>
<path transform="translate(680,507)" d="m0 0 5 5 10 12 10 13 28 36 22 28 28 36 22 28 28 36 22 28 3 4-2 4-5 3-10-12-13-17-12-15-13-17-12-15-10-13-22-28-14-18-11-14-14-18-11-14-14-18-11-14-9-12 2-5z" fill="#FECC00"/>
<path transform="translate(474,345)" d="m0 0 4 4 10 18 3 4 16-2h14l13 2 2 2-4 8-9 8-3 2 9 3 4 4-2 11-7 2-22 11-2-1-4-10-8-10-11-9-14-7 2-9 7-23z" fill="#128C48"/>
<path transform="translate(1352,543)" d="m0 0 3 1 3 5-2 5-10 10-7 8-14 15-9 10-12 13-9 10-14 15-9 10-12 13-33 36-9 10-14 15-9 10-22 24-7-6 6-8 10-10 7-8 14-15 7-8 15-16 7-8 15-16 7-8 14-15 9-10 12-13 55-60z" fill="#FECC00"/>
<path transform="translate(656,543)" d="m0 0 4 2 7 8 14 15 9 10 12 13 132 144 10 11-5 5h-4l-8-8-7-8-14-15-9-10-12-13-132-144-1-4z" fill="#FECC00"/>
<path transform="translate(1270,1204)" d="m0 0h1v10l-4 30-6 28-7 24-9 24-11 23-11 18-10 14-11 13-11 12-13 12-13 10-13 9h-1l1-15 2-7 19-14 13-11 13-12 11-12 13-18 10-18 9-21 7-21 7-29 6-31 5-14z" fill="#FBFDFC"/>
<path transform="translate(1800,1553)" d="m0 0h4l-2 4-8 8-17 13-17 12-18 11-10 4-10 2h-14l-9-3-3-3 1-6 10-9 7-8 11-8 26-6 36-9z" fill="#FECA00"/>
<path transform="translate(644,563)" d="m0 0 4 2 188 188-6 7-8-6-5-6-22-22-5-4-7-8-16-15-4-5-8-7-9-10-82-82-5-4-5-6-13-13 1-5z" fill="#FECC00"/>
<path transform="translate(1364,563)" d="m0 0h2l3 6-1 4-187 187-7-6 6-7z" fill="#FECC00"/>
<path transform="translate(1374,584)" d="m0 0 3 1 2 5-1 4-7 7-8 7-16 15-8 7-16 15-8 7-15 14-10 9-13 12-72 66-10 9-8 6-5-5 1-4 26-24 10-9 13-12 12-11 10-9 26-24 10-9 15-14 8-7 16-15 10-9 24-22 10-9z" fill="#FECC00"/>
<path transform="translate(634,584)" d="m0 0 4 2 8 8 8 7 26 24 10 9 13 12 84 77 10 9 13 12 12 11 6 5-2 5-3 3-4-2-8-8-8-7-15-14-10-9-13-12-96-88-10-9-15-14-10-9-4-3 2-6z" fill="#FECC00"/>
<path transform="translate(385,1105)" d="m0 0 13 1 12 5 32 19 18 10 15 7 47 18 5 4-1 4h-17l-19-4-29-10-29-12-19-9-17-11-8-9-3-7z" fill="#FBFDFC"/>
<path transform="translate(1625,1105)" d="m0 0h6l-1 8-6 10-7 6-15 9-16 8-29 12-28 10-17 4-5 1h-17l-1-5 12-6 25-9 26-11 19-10 28-17 16-8z" fill="#FCFEFC"/>
<path transform="translate(624,605)" d="m0 0 5 2 15 13 13 11 11 9 14 12 11 9 14 12 11 9 14 12 11 9 26 22 11 9 14 12 11 9 13 11 3 2-2 5-3 3-4-2-14-12-11-9-14-12-11-9-14-12-11-9-14-12-11-9-14-12-11-9-14-12-11-9-26-22-11-9-4-3z" fill="#FECC00"/>
<path transform="translate(1383,605)" d="m0 0h3l2 5-1 5-10 9-11 9-13 11-11 9-14 12-11 9-14 12-11 9-14 12-11 9-14 12-11 9-14 12-11 9-14 12-8 6-5-4-1-4 26-22 11-9 14-12 11-9 14-12 11-9 26-22 11-9 14-12 11-9 14-12 11-9 13-11z" fill="#FECC00"/>
<path transform="translate(553,1021)" d="m0 0h10l10 6 7 7 11 14 7 11 5 11 2 8-1 9-3 4h-10l-12-6-13-12-11-14-8-13-3-8v-7l4-6z" fill="#FDFEFC"/>
<path transform="translate(1453,1021)" d="m0 0h9l6 4 3 4v11l-8 16-11 14-9 10-13 9-5 2h-10l-4-5v-9l4-13 8-14 9-11 11-12z" fill="#FDFEFC"/>
<path transform="translate(1392,626)" d="m0 0h2l2 9-12 10-16 12-18 14-73 56-34 26-18 14-16 12-7 5-4-2-3-5 18-14 43-33 30-23 56-43 43-33z" fill="#FECC00"/>
<path transform="translate(616,626)" d="m0 0 5 2 15 12 16 12 18 14 60 46 73 56 10 8v4l-3 4-4-1-18-14-16-12-18-14-30-23-30-23-43-33-26-20-12-9z" fill="#FECC00"/>
<path transform="translate(609,647)" d="m0 0 5 2 15 11 16 11 17 12 43 30 20 14 17 12 23 16 17 12 23 16 3 2-2 4-3 4-4-2-16-11-160-112-16-11 1-8z" fill="#FECC00"/>
<path transform="translate(1399,647)" d="m0 0h2l2 9-9 7-20 14-23 16-17 12-80 56-17 12-23 16-6 4h-2l-4-6v-2l100-70 17-12 60-42z" fill="#FECC00"/>
<path transform="translate(1100,1568)" d="m0 0 2 3 7 21 9 21 10 19 12 16 12 11 8 6h26l6 4 6 7 4 8 2 6v11l-2 2-1-3-4-4-5-11-5-4-10-4h-8l-11 4-10 7-3 1-3 4-1-2v-6l6-9 5-4v-2l-12-9-13-11-11-11-10-14-12-20-2-5 7-31z" fill="#FAFDFC"/>
<path transform="translate(876,1568)" d="m0 0 2 2 6 28-1 7-10 16-8 12-8 10-10 10-14 11-9 7 9 9 3 9-1 3h-2l-1-3-5-2-10-7-8-3h-10l-10 4-5 5-6 12-3 1-1 4-2-5 1-10 7-14 4-5 7-4h25l12-9 7-6 11-14 11-19 11-26z" fill="#FBFDFC"/>
<path transform="translate(1406,668)" d="m0 0 2 3 1 7-24 15-17 11-41 26-25 16-88 56h-2l-4-6 1-3 195-124z" fill="#FECC00"/>
<path transform="translate(603,668)" d="m0 0 11 6 20 13 19 12 22 14 25 16 19 12 69 44 14 9-4 8-5-2-18-11-17-11-110-70-47-30 1-8z" fill="#FECC00"/>
<path transform="translate(758,353)" d="m0 0h9l8 4 2 3-1 5-7 6-26 8-17 9-11 9-2 2-13-2-10-2 3-10 2-9 1-17h17l26-2 17-3z" fill="#128C48"/>
<path transform="translate(1662,1573)" d="m0 0h26v18l-4 10-9 11-7 6-5 2h-10l-8-4-7-7-5-10-1-4v-16l2-5z" fill="#FECA00"/>
<path transform="translate(1413,702)" d="m0 0h2l1 10-32 17-68 37-24 13-26 14-44 24-3-3-2-6 32-17 22-12 96-52 23-13z" fill="#FECC00"/>
<path transform="translate(595,702)" d="m0 0 6 2 26 14 70 38 23 13 23 12 23 13 25 13 2 3-4 7-5-2-30-16-70-38-46-25-26-14-18-10z" fill="#FECC00"/>
<path transform="translate(1416,723)" d="m0 0h2l1 10-47 23-41 20-76 37-27 13h-3l-3-6 1-3 45-22 121-59z" fill="#FECC00"/>
<path transform="translate(592,723)" d="m0 0 6 2 86 42 17 8 38 19 44 21 5 3-3 8-6-1-38-19-23-11-123-60-4-2v-8z" fill="#FECC00"/>
<path transform="translate(155,786)" d="m0 0 5 2 9 7 8 10 9 16v2l15-4 19-3h27l6 1v9l-5 17-2 4-10-3-69-26-21-8v-7l3-10z" fill="#FEC901"/>
<path transform="translate(1418,744)" d="m0 0h3v10l-69 30-92 40-28 12-3-1-2-5v-3l41-18 136-59z" fill="#FECC00"/>
<path transform="translate(589,744)" d="m0 0 5 1 30 13 32 14 37 16 46 20 39 17 5 2-1 5-2 4-9-3-37-16-131-57-14-6-1-3z" fill="#FECC00"/>
<path transform="translate(1421,764)" d="m0 0 2 3v7l-36 14-52 20-99 38-3-1-2-5v-3l44-17 52-20 55-21z" fill="#FECC00"/>
<path transform="translate(588,764)" d="m0 0 30 11 36 14 47 18 78 30-3 9-10-3-47-18-99-38-31-12-2-1v-9z" fill="#FECC00"/>
<path transform="translate(586,785)" d="m0 0 7 1 177 59 5 2-2 9-9-2-177-59-1-1z" fill="#FECC00"/>
<path transform="translate(1420,785)" d="m0 0h3v9l-10 4-35 12-138 46h-3l-2-5v-4l41-14 102-34 38-13z" fill="#FECC00"/>
<path transform="translate(1524,1571)" d="m0 0h24l8 1-2 5-11 13-11 10-11 7-13 4-6 1h-13l-9-3-3-2v-6l10-9 27-18 4-2z" fill="#FECA00"/>
<path transform="translate(547,1077)" d="m0 0h8l11 8 10 11 9 14 6 13 1 3v7l-3 2h-7l-13-4-13-7-10-9-6-9-2-6v-9l3-8 5-5z" fill="#FCFEFC"/>
<path transform="translate(1461,1077)" d="m0 0h7l6 5 3 6 1 9-2 8-6 10-10 9-15 8-10 3h-9l-2-2v-8l5-12 9-14 12-14z" fill="#FCFEFC"/>
<path transform="translate(1647,853)" d="m0 0 5 2 11 9 10 9 9 10 12 17 1 3-6 7-9 6-9 3h-8l-9-2-2-2-2-11-1-27z" fill="#FECA00"/>
<path transform="translate(386,1146)" d="m0 0h14l15 5 31 14 26 10 54 16 3 2v3h-21l-22-4-29-8-37-12-22-10-9-8z" fill="#FBFDFC"/>
<path transform="translate(1616,1146)" d="m0 0h14l-3 8-8 7-16 8-25 9-33 10-24 6-13 2h-21l1-4 15-5 34-10 23-8 23-10 26-11z" fill="#FBFDFC"/>
<path transform="translate(586,805)" d="m0 0 8 1 91 26 87 25-2 9-8-1-129-37-45-13-1-1z" fill="#FECC00"/>
<path transform="translate(1419,805)" d="m0 0h4v9l-8 3-136 39-35 10h-4l-2-9 66-19 112-32z" fill="#FECC00"/>
<path transform="translate(587,824)" d="m0 0 19 4 71 17 49 12 42 10 1 4-2 6-18-4-151-36-10-3-1-3z" fill="#FECC00"/>
<path transform="translate(1421,824)" d="m0 0 2 1-1 9-56 14-121 29-3-1-1-8 9-3 108-26z" fill="#FECC00"/>
<path transform="translate(744,1203)" d="m0 0 4 4 5 12 3 14 7 35 8 29 8 20 8 16 10 16 11 13 7 8 6 6v18l-4-2-18-22-10-15-9-16-11-23-9-25-8-30-6-36z" fill="#FAFDFC"/>
<path transform="translate(1063,134)" d="m0 0 3 3 8 18 19 2 3 2-12 11-4 3 4 19v4l-5-2-14-8-6 2-15 9-1-2 5-23-4-2-10-9-3-3 13-2 10-1z" fill="#FFFFFD"/>
<path transform="translate(1415,859)" d="m0 0h5l-2 10-170 27h-2l-1-10 100-16z" fill="#FECC00"/>
<path transform="translate(590,859)" d="m0 0 11 1 158 25 6 1-1 9-2 1-170-27-2-7z" fill="#FECC00"/>
<path transform="translate(1408,878)" d="m0 0h9l-1 8-3 2-158 18h-8l-1-9 21-3z" fill="#FECC00"/>
<path transform="translate(593,878)" d="m0 0h9l157 18 4 1v9l-16-1-150-17-3-1z" fill="#FECC00"/>
<path transform="translate(570,978)" d="m0 0h6l6 4 9 10 12 18 7 15 2 13-2 5-1 1h-7l-10-7-10-11-10-15-7-14-1-8 3-9z" fill="#FCFEFC"/>
<path transform="translate(1440,978)" d="m0 0h6l5 6v12l-4 10-10 15-8 10-5 6-9 6-2 1h-6l-3-4v-7l4-14 9-16 9-12 9-10z" fill="#FDFEFC"/>
<path transform="translate(1603,1297)" d="m0 0 2 1 6 22 2 13 1 23-15 4-5 1h-21l-3-2 12-26 10-19z" fill="#FECA00"/>
<path transform="translate(596,896)" d="m0 0 24 1 142 10v10l-20-1-143-10-2-3z" fill="#FECC00"/>
<path transform="translate(1405,896)" d="m0 0h8l-1 9-1 1-157 11h-6l-1-9 1-1z" fill="#FECC00"/>
<path transform="translate(1462,1136)" d="m0 0 7 1 6 6 2 5v8l-3 6-9 8-16 9-13 5-4 1h-8l-2-2 1-8 8-13 10-13 8-8 8-4z" fill="#FCFEFC"/>
<path transform="translate(551,1136)" d="m0 0 10 2 8 5 10 11 10 14 5 11-1 5-1 1h-8l-15-5-13-7-11-8-5-6-1-2v-9l4-8 4-3z" fill="#FDFEFC"/>
<path transform="translate(1386,914)" d="m0 0h24l-2 9-6 1-117 3h-37v-9l20-1z" fill="#FECC00"/>
<path transform="translate(600,914)" d="m0 0h24l117 3 21 1-1 9h-36l-118-3-5-1z" fill="#FECC00"/>
<path transform="translate(1416,1570)" d="m0 0h54l-1 7-4 8-6 7-10 6-8 3-4 1h-11l-8-3-5-6-1-3v-10l3-9z" fill="#FECB00"/>
<path transform="translate(398,1187)" d="m0 0h14l13 3 37 13 28 7 36 7 4 2v3l-5 1h-21l-27-4-37-8-21-6-11-5-8-7z" fill="#FBFEFC"/>
<path transform="translate(1603,1187)" d="m0 0h15l-2 5-6 7-8 4-22 7-37 8-22 4-9 1h-21l-5-1 1-4 23-5 29-6 24-7 28-10z" fill="#FCFEFC"/>
<path transform="translate(1248,929)" d="m0 0h43l114 2-2 9-1 1h-19l-112-2-23-1z" fill="#FECC00"/>
<path transform="translate(719,929)" d="m0 0h42l1 9-23 1-112 2h-20l-2-6v-4z" fill="#FECC00"/>
<path transform="translate(1023,1383)" d="m0 0 6 1 6 9 3 11 1 7v18l-3 14-5 8-6 1-5-5-4-8-3-17v-18l3-12 4-7z" fill="#FCFEFC"/>
<path transform="translate(984,1387)" d="m0 0h6l5 5 4 10 2 11v21l-3 13-4 6-2 2-7-1-5-7-4-14-1-11v-9l2-14 4-9z" fill="#FDFEFC"/>
<path transform="translate(800,1789)" d="m0 0h7l7 3 5 4 4 10v11l-5 8-8 5-4 1h-9l-8-4-5-6-2-6v-12l3-6 6-5z" fill="#FECC00"/>
<path transform="translate(1131,1787)" d="m0 0h9l8 3 6 5 3 7v10l-3 8-4 5-6 3-9 1-10-3-6-5-3-6v-13l4-8 7-6z" fill="#FECC00"/>
<path transform="translate(992,1317)" d="m0 0h6l6 5 5 12 1 5v16l-3 12-4 6-5 4-6-1-5-5-4-8-2-11v-13l2-10 4-8z" fill="#FDFEFC"/>
<path transform="translate(962,1318)" d="m0 0h6l5 5 4 8 2 13-1 14-3 10-4 6-5 4-6-1-5-5-4-9-1-4v-20l4-13 6-7z" fill="#FEFEFC"/>
<path transform="translate(1588,1240)" d="m0 0h14l5 1-2 5-9 6-21 5-32 4-21 2h-41l-8-2v-3l12-2 42-4 24-4z" fill="#FCFEFC"/>
<path transform="translate(414,1240)" d="m0 0h14l47 10 32 4 33 3 3 2v2l-9 2h-40l-39-4-24-4-13-4-7-5-2-5z" fill="#FDFEFC"/>
<path transform="translate(1600,1215)" d="m0 0 13 1-2 5-8 6-13 4-19 4-49 6h-37l-6-2 2-3 48-6 26-5 37-9z" fill="#FCFEFC"/>
<path transform="translate(411,1215)" d="m0 0 12 1 46 11 33 5 32 4 3 3-7 2h-36l-48-6-21-4-12-4-6-4-4-4v-3z" fill="#FDFEFC"/>
<path transform="translate(62,1021)" d="m0 0 5 2 14 11 11 7 12 6 11 19v1l-11 3-2 1-2 4-4-2-18-13-12-9-4-11-1-13z" fill="#128C48"/>
<path transform="translate(911,1776)" d="m0 0h7l7 2 3 3 1 9-3 4 5 5 1 7-2 5-5 4-14 2h-12l-2-32v-8z" fill="#FECC00"/>
<path transform="translate(553,1187)" d="m0 0h11l10 5 15 14 6 8 2 4-1 4-1 1h-13l-17-5-13-7-5-5-1-9 3-7z" fill="#FBFEFC"/>
<path transform="translate(1407,1192)" d="m0 0 8 2 4 6 1 9-4 7-13 9-16 7-3 1h-11l-1-5 5-10 11-14 8-8 6-3z" fill="#FBFDFC"/>
<path transform="translate(606,1192)" d="m0 0 10 2 6 4 7 7 11 15 4 9-1 4h-11l-13-5-11-6-9-7-3-6v-7l5-8z" fill="#FDFEFC"/>
<path transform="translate(1452,1187)" d="m0 0h11l5 5 2 6-1 7-6 7-15 7-14 4h-13l-2-2 1-6 11-13 10-9 8-5z" fill="#FCFEFC"/>
<path transform="translate(1579,1268)" d="m0 0h14l3 1-2 4-6 4-13 3-15 2-51 3h-38l-10-2v-2l2-1 57-5z" fill="#FEFEFC"/>
<path transform="translate(1057,1381)" d="m0 0 5 2 4 5 4 13 1 15-2 15-4 9-4 3-5-2-4-5-3-9-2-14 1-17 4-11z" fill="#FDFEFC"/>
<path transform="translate(949,1388)" d="m0 0 6 1 5 7 3 11 1 7v14l-3 14-4 6-1 1-7-1-4-6-3-9-1-6v-21l3-12z" fill="#FEFEFC"/>
<path transform="translate(423,1268)" d="m0 0h14l42 5 49 5 25 2 2 2-3 2-7 1h-38l-51-3-25-4-8-4-3-3v-2z" fill="#FEFEFC"/>
<path transform="translate(866,849)" d="m0 0 4 2 10 9 14 9 10 4 8 2h26l38-5 11-1h13l-4 2-44 13-15 3-16 1-11-1-13-5-11-8-10-10-10-14z" fill="#FBFDFC"/>
<path transform="translate(980,1541)" d="m0 0h6l5 5 5 10 1 6v15l-4 11-5 5-7-1-5-5-4-9-1-5v-16l4-11z" fill="#FCFEFC"/>
<path transform="translate(984,1472)" d="m0 0 7 1 5 6 4 11v19l-3 9-4 5-7 1-6-5-5-12-1-14 2-11 5-8z" fill="#FDFEFC"/>
<path transform="translate(1018,1312)" d="m0 0h6l6 7 4 8 3 11 1 6v15l-3 9-2 2h-6l-6-7-5-12-3-17v-9l2-9z" fill="#FDFEFC"/>
<path transform="translate(1169,1793)" d="m0 0 11 2 3 7 5 18 2-4 4-17 10 1-2 12-6 27-9-1-3-1-8-26-5 23-10-2 1-8 6-28z" fill="#FECC00"/>
<path transform="translate(936,1313)" d="m0 0h5l4 5 1 4v17l-3 14-4 10-7 8-4 1-5-5-2-11 1-14 3-13 5-10 4-5z" fill="#FCFEFC"/>
<path transform="translate(1555,1296)" d="m0 0h23l6 2-2 4-5 3-12 2-15 1h-28l-34-1-21-2-9-3-1-2 4-1 61-1z" fill="#FCFEFC"/>
<path transform="translate(1437,1334)" d="m0 0 11 1 51 7 38 4 16 2 9 4-4 4-8 2-28-2-30-5-36-7-12-4-8-4z" fill="#FCFEFC"/>
<path transform="translate(438,1296)" d="m0 0h23l33 2 61 1 3 1v2l-10 3-20 2-34 1h-28l-23-2-8-3-3-3v-2z" fill="#FCFEFC"/>
<path transform="translate(946,1467)" d="m0 0 7 1 5 6 4 10v20l-3 9-4 5-7 1-5-4-4-7-2-8v-19l4-10z" fill="#FDFEFC"/>
<path transform="translate(573,1334)" d="m0 0h6l-2 4-18 6-24 5-41 7-28 2-8-2-4-4 5-3 19-3 46-5 43-6z" fill="#FCFEFC"/>
<path transform="translate(1443,1316)" d="m0 0 17 1 48 4 39 2 18 2 4 2-2 4-8 3h-22l-30-3-44-6-14-4-6-3z" fill="#FDFEFC"/>
<path transform="translate(566,1316)" d="m0 0h6v3l-15 5-25 4-40 5-13 1h-23l-8-4-1-3 8-3 28-2 25-1z" fill="#FEFEFC"/>
<path transform="translate(1020,1471)" d="m0 0 7 1 6 8 3 11v17l-4 11-5 4-7-1-5-6-4-11v-20l4-10z" fill="#FDFEFC"/>
<path transform="translate(655,1200)" d="m0 0h8l15 7 11 7 3 4v5l-6 4-10 2h-18l-7-3-4-5-1-3v-10l4-6z" fill="#FBFDFC"/>
<path transform="translate(593,1148)" d="m0 0h9l12 7 12 11 8 10 3 6v5l-1 1h-13l-10-5-13-11-8-9-2-5 1-8z" fill="#FCFEFC"/>
<path transform="translate(1414,1148)" d="m0 0h9l2 3v9l-6 9-11 10-10 7-6 2h-13l-1-4 5-10 11-13 14-10z" fill="#FCFEFC"/>
<path transform="translate(1353,1200)" d="m0 0h8l6 3 3 6-1 11-4 6-7 3h-18l-10-2-6-4-1-4 5-6 15-9z" fill="#FBFDFC"/>
<path transform="translate(312,1688)" d="m0 0 5 5 9 6 17 8 6 3 4 8 7 7 15 10v1l-9-1-23-7-17-8-11-8-9-9 1-5z" fill="#128C48"/>
<path transform="translate(1365,1160)" d="m0 0 5 2 1 9-4 7-9 9-15 10-8 4-10 1-2-2v-6l6-9 6-7 13-10 10-6z" fill="#FAFDFC"/>
<path transform="translate(910,1304)" d="m0 0 7 1 3 8v16l-3 14-7 14-4 3h-5l-3-4-2-10 1-15 4-14 5-9z" fill="#FDFEFC"/>
<path transform="translate(1044,1303)" d="m0 0 7 1 6 9 4 10 2 11v16l-3 7-2 2-6-1-5-6-4-8-3-13-1-15 2-9z" fill="#FCFEFC"/>
<path transform="translate(650,1160)" d="m0 0 9 3 10 6 10 8 9 9 5 9v5l-3 2-9-1-12-6-13-10-9-9-2-4v-8l2-3z" fill="#FDFEFC"/>
<path transform="translate(601,1106)" d="m0 0 6 1 11 8 13 13 7 11 2 5v7l-1 1h-8l-10-6-10-9-8-8-6-10v-8l2-4z" fill="#FCFEFC"/>
<path transform="translate(613,1070)" d="m0 0 6 1 12 9 11 11 8 12 2 5v7l-1 1h-8l-9-5-10-9-10-10-5-9v-9z" fill="#FCFEFC"/>
<path transform="translate(1412,1106)" d="m0 0 5 1 2 4v7l-4 8-11 12-10 9-9 5h-8l-1-1v-7l6-12 9-10 10-10 8-5z" fill="#FCFEFC"/>
<path transform="translate(1400,1070)" d="m0 0 5 1 2 3v9l-6 10-16 16-12 7h-8l-1-2 1-9 7-11 9-10 11-10z" fill="#FDFEFC"/>
<path transform="translate(328,629)" d="m0 0h7l6 7 3 7v8l12 3 1 4-6 5-12 4-14 3h-3v-15l-4-15 1-5 5-4z" fill="#128C48"/>
<path transform="translate(978,1775)" d="m0 0h11l1 12 8-7 5-5h10l2 2-16 15v4l9 10 8 8v1h-13l-14-14-1 14h-10z" fill="#FECC00"/>
<path transform="translate(229,1107)" d="m0 0h3l9 12 7 15 2 8v7h-17l-9 3-4-21v-12l4-8z" fill="#128C48"/>
<path transform="translate(980,1129)" d="m0 0h6l5 6 3 8v20l-4 10-5 4h-5l-6-7-3-10v-14l3-10 4-6z" fill="#FCFEFC"/>
<path transform="translate(586,1351)" d="m0 0h5v2l-12 6-25 7-40 9-20 3h-9l-7-3v-3l8-3 36-6 45-8z" fill="#F8FCFB"/>
<path transform="translate(955,1129)" d="m0 0 6 2 5 8 1 4v20l-4 10-4 4-5 1-5-4-4-9-1-5v-11l3-12 4-6z" fill="#FBFDFC"/>
<path transform="translate(1425,1351)" d="m0 0 9 1 53 10 33 5 16 4 2 4-8 3-16-1-31-6-40-10-15-6-3-2z" fill="#FCFEFC"/>
<path transform="translate(76,706)" d="m0 0h12l-5 14v9l2 6-11 1-6 4-6 7-3 4-3-7-1-4v-18l3-6 8-7z" fill="#128C48"/>
<path transform="translate(1345,1241)" d="m0 0h7l6 3 3 5-1 9-5 5-5 2-7 1h-21l-8-3-1-4 8-7 17-9z" fill="#FDFEFC"/>
<path transform="translate(664,1241)" d="m0 0 11 1 16 8 9 6 3 4-2 4-8 2h-21l-9-2-6-4-2-4v-8l5-6z" fill="#FCFEFC"/>
<path transform="translate(940,1775)" d="m0 0h28v8h-17v7h16v8h-16v9l17-1 1 1v8h-28l-1-2z" fill="#FECC00"/>
<path transform="translate(1417,1369)" d="m0 0 9 1 49 12 34 7 13 4 4 4-3 2-10 1-26-5-48-14-15-6-6-4z" fill="#F7FCFB"/>
<path transform="translate(1375,1331)" d="m0 0h13l6 3 4 5-1 9-4 5-2 1h-14l-15-4-11-6-1-5 6-4 12-3z" fill="#FBFEFC"/>
<path transform="translate(628,1331)" d="m0 0h12l16 3 9 4 1 4-6 5-13 5-9 2h-13l-6-5-1-3v-8l5-5z" fill="#FEFEFC"/>
<path transform="translate(883,1778)" d="m0 0h5v8l-17 25 21-1v8l-27 3h-7l-1-7 17-25h-19l-1-7 1-1z" fill="#FECC00"/>
<path transform="translate(593,1369)" d="m0 0h6l-4 4-10 5-21 7-40 11-21 4-10-1-3-3 6-4 24-6 33-7z" fill="#FAFDFC"/>
<path transform="translate(1048,1778)" d="m0 0h15l8 3-1 8-12-3-6 1v4l15 6 4 5v8l-3 6-6 3h-11l-10-3-2-1 1-9 11 4h8l1-4v-2l-11-3-6-4-2-3v-8l3-5z" fill="#FECC00"/>
<path transform="translate(1427,1232)" d="m0 0h12l6 4 2 3-1 9-5 5-2 1h-20l-13-3-6-4 1-4 6-4 17-6z" fill="#FCFEFC"/>
<path transform="translate(577,1232)" d="m0 0h11l18 6 9 5 1 3-4 4-9 3-5 1h-21l-5-3-3-5v-8l5-5z" fill="#FBFDFC"/>
<path transform="translate(1368,1364)" d="m0 0h9l7 3 4 5-1 8-4 5-2 1h-13l-14-4-10-5-2-2 1-5 13-4z" fill="#FBFDFC"/>
<path transform="translate(638,1364)" d="m0 0h11l19 4 5 3 1 4-9 6-13 4-5 1h-12l-5-4-2-4v-7l5-5z" fill="#FBFEFC"/>
<path transform="translate(1068,1301)" d="m0 0 5 1 6 8 4 12 1 6v15l-3 7-5 1-5-5-5-10-3-15v-9l2-8z" fill="#F9FDFC"/>
<path transform="translate(1050,1464)" d="m0 0h5l5 6 3 8 1 6v10l-3 12-4 4h-6l-4-5-3-8-1-16 2-10 4-6z" fill="#FCFEFC"/>
<path transform="translate(1169,1676)" d="m0 0h8l10 4 7 6 5 12 2 2-9-1-48-8 1-3 6-3 9-6z" fill="#000100"/>
<path transform="translate(887,1303)" d="m0 0h5l3 4 1 3v15l-4 16-5 8-3 3-5-1-3-5-1-11 2-14 4-11z" fill="#FCFEFC"/>
<path transform="translate(603,1386)" d="m0 0h2l-2 4-16 8-30 11-25 8-12 3h-12l-3-3 5-4 27-8 30-8z" fill="#F8FCFB"/>
<path transform="translate(1318,1166)" d="m0 0 5 3v8l-6 8-9 8-13 8-6 2-7-1v-6l5-8 6-7 15-11z" fill="#FAFDFC"/>
<path transform="translate(696,1166)" d="m0 0 6 1 12 7 12 10 7 10 1 7-2 2-8-1-10-5-13-10-7-8-1-2v-8z" fill="#FBFDFC"/>
<path transform="translate(1358,1121)" d="m0 0h7l2 3v7l-6 10-13 13-10 6-7 1-2-2 1-8 6-10 9-10 10-8z" fill="#FBFDFC"/>
<path transform="translate(1411,1386)" d="m0 0 11 3 41 12 37 10 9 4 2 3-4 2h-11l-25-7-40-14-16-8-4-3z" fill="#F9FDFB"/>
<path transform="translate(1006,1129)" d="m0 0h5l6 7 3 9v18l-4 8-3 2-5-1-6-7-3-12v-11l3-10z" fill="#FCFEFC"/>
<path transform="translate(651,1121)" d="m0 0h7l10 8 11 11 6 10 2 8-3 3-6-1-10-6-8-7-9-11-2-4v-8z" fill="#FCFEFC"/>
<path transform="translate(976,1597)" d="m0 0 6 1 5 6 2 5 1 6v12l-3 9-4 4-7-1-4-5-3-9v-17l3-7z" fill="#FBFDFC"/>
<path transform="translate(912,1458)" d="m0 0h5l5 8 2 9v21l-3 10-2 3h-5l-4-5-3-11v-22l3-10z" fill="#FDFEFC"/>
<path transform="translate(887,1449)" d="m0 0 4 1 3 3 3 9 1 6v18l-3 12-3 3-5-1-3-4-3-12v-22l3-10z" fill="#FBFDFC"/>
<path transform="translate(1382,1248)" d="m0 0h7l5 4 1 3v7l-5 6-8 4-16 4h-10l-2-4 4-6 9-9 10-7z" fill="#FCFEFC"/>
<path transform="translate(1374,1279)" d="m0 0h14l6 5v8l-3 5-6 3h-13l-12-2-9-4-1-4 5-4 12-5z" fill="#FCFEFC"/>
<path transform="translate(1083,1375)" d="m0 0 4 2 4 9 2 16-1 16-3 9-3 3-4-1-4-9-2-12v-15l3-14z" fill="#FCFEFC"/>
<path transform="translate(1401,1302)" d="m0 0h13l6 4 2 2v8l-5 6-2 1h-11l-13-3-12-6-1-5 4-3 11-3z" fill="#FBFDFC"/>
<path transform="translate(1419,1264)" d="m0 0 9 1 5 3 3 4-1 8-5 5-10 1-16-4-12-6-1-4 6-4 14-3z" fill="#FCFEFC"/>
<path transform="translate(593,1264)" d="m0 0 18 2 10 3 3 2-1 5-8 5-13 4-14 1-6-4-2-5 1-7 6-5z" fill="#FDFEFC"/>
<path transform="translate(627,1248)" d="m0 0h7l8 4 13 11 6 8v4l-2 1h-10l-15-4-8-4-5-5v-9l4-5z" fill="#FCFEFC"/>
<path transform="translate(602,1302)" d="m0 0h14l15 3 6 3 1 4-8 6-17 5h-12l-5-3-2-4v-8l6-5z" fill="#FCFEFC"/>
<path transform="translate(628,1279)" d="m0 0h14l17 6 6 4 1 3-3 3-7 3-13 2h-11l-7-3-3-4v-9l4-4z" fill="#FCFEFC"/>
<path transform="translate(610,1402)" d="m0 0h5l-5 5-10 6-36 15-25 9-8 2h-9l-3-1 2-4 11-5 35-11 18-7 23-8z" fill="#F7FCFB"/>
<path transform="translate(1401,1402)" d="m0 0 7 1 44 16 29 9 12 5 3 2v3l-2 1h-9l-17-5-26-10-26-11-12-7z" fill="#F7FCFB"/>
<path transform="translate(917,1387)" d="m0 0h5l4 7 2 10v25l-4 11-4 1-4-4-3-11-1-7v-15l3-14z" fill="#FDFEFC"/>
<path transform="translate(623,1415)" d="m0 0h2l-2 4-14 9-19 9-14 7-24 10-10 3-9-1 1-4 14-7 35-13 23-10z" fill="#F9FDFC"/>
<path transform="translate(1390,1415)" d="m0 0 6 1 18 8 27 11 29 11 10 5 3 3v2l-9 1-18-6-35-16-16-8-11-7z" fill="#F8FCFB"/>
<path transform="translate(928,1134)" d="m0 0 5 1 4 6 1 4v9l-2 10-4 8-5 4-6-1-3-4-1-3v-15l3-10 4-6z" fill="#FBFEFC"/>
<path transform="translate(947,1535)" d="m0 0 5 1 5 8 2 10v12l-2 9-4 6h-5l-4-5-3-8-1-16 2-10 3-5z" fill="#FCFEFC"/>
<path transform="translate(1011,1534)" d="m0 0 5 1 4 7 2 6v22l-4 9-1 1-7-1-4-8-2-13 1-14 4-9z" fill="#F9FDFC"/>
<path transform="translate(1380,1429)" d="m0 0 5 1 41 20 23 10 16 8 4 5-8 1-13-4-16-8-29-15-15-9-8-7z" fill="#F8FCFB"/>
<path transform="translate(870,1292)" d="m0 0 4 2 2 6v15l-4 15-4 8-3 3h-5l-2-4-1-13 3-16 4-10 4-5z" fill="#FDFEFC"/>
<path transform="translate(1087,1291)" d="m0 0 4 1 5 6 4 11 2 10v14l-3 7h-5l-6-9-4-13-1-16 2-9z" fill="#FDFEFC"/>
<path transform="translate(633,1429)" d="m0 0h3l-2 4-11 8-22 12-23 12-18 8-10 1-3-2 7-6 26-12 18-8z" fill="#FBFDFC"/>
<path transform="translate(643,1440)" d="m0 0 4 1-8 8-20 13-22 13-20 11-8 3h-8v-3l7-6 23-12 16-8 28-15z" fill="#F6FCFB"/>
<path transform="translate(976,1257)" d="m0 0 4 2 3 4 2 7 1 12-2 15-4 8-5 1-5-8-2-15 1-13 4-11z" fill="#FCFEFC"/>
<path transform="translate(999,1192)" d="m0 0 4 1 4 5 3 9 1 6v17l-3 9-1 1h-5l-4-5-3-8-1-5v-20l3-8z" fill="#FDFEFC"/>
<path transform="translate(1369,1440)" d="m0 0 5 1 26 14 16 9 32 16 8 7-1 2h-8l-12-5-22-12-16-10-17-11-10-9z" fill="#F9FDFC"/>
<path transform="translate(975,1194)" d="m0 0 5 1 3 4 2 8 1 12-2 15-5 8-5-1-4-7-2-15 1-13 3-9z" fill="#FDFEFC"/>
<path transform="translate(1079,1780)" d="m0 0 36 4-1 8h-8l-5-1-1 14-2 17h-9l-2-1 1-13 2-17-1-1-9-1-2-1v-7z" fill="#FECC00"/>
<path transform="translate(704,1231)" d="m0 0h18l10 2 8 4 2 2v5l-4 3-10 2-19-1-7-3-4-4v-7z" fill="#FBFDFC"/>
<path transform="translate(1299,1206)" d="m0 0h16l3 3-1 7-6 5-9 3-6 1h-17l-5-3v-5l6-5 9-4z" fill="#FDFEFC"/>
<path transform="translate(1293,1231)" d="m0 0h17l7 2 1 1v6l-4 5-7 3-19 1-10-2-5-4 2-5 6-4z" fill="#FDFEFC"/>
<path transform="translate(701,1206)" d="m0 0h16l13 3 10 6 2 3-1 5-4 2h-17l-13-3-6-4-3-4v-6z" fill="#FCFEFC"/>
<path transform="translate(674,1389)" d="m0 0h8l5 2-1 5-10 9-13 7-9 1-6-5-1-2v-6l5-6 7-3z" fill="#FCFEFC"/>
<path transform="translate(1334,1389)" d="m0 0 16 1 10 2 8 6 1 2v6l-5 6-8 1-16-8-10-9-1-5z" fill="#FCFEFC"/>
<path transform="translate(799,1676)" d="m0 0h10l10 4 9 7 3 2-48 8h-4l3-10 5-5 6-4z" fill="#000201"/>
<path transform="translate(663,1461)" d="m0 0h2l-2 5-9 9-17 13-20 15-15 10-9 4h-6l1-4 8-7 17-11 19-12 12-9 12-8z" fill="#FBFDFC"/>
<path transform="translate(1359,1449)" d="m0 0 6 2 17 11 25 15 26 15 7 6-1 3-9-1-17-9-15-10-19-13-13-10-7-7z" fill="#F7FCFB"/>
<path transform="translate(655,1449)" d="m0 0 2 1-7 8-13 10-22 15-19 12-13 6h-6v-4l9-7 25-14 42-26z" fill="#F8FCFB"/>
<path transform="translate(1029,1128)" d="m0 0h5l5 5 4 9 1 5v11l-3 7-2 2-7-1-4-5-4-11v-15l3-6z" fill="#FCFEFC"/>
<path transform="translate(1351,1461)" d="m0 0 5 2 15 11 11 7 11 8 19 12 14 10 3 4v2l-9-1-11-6-17-12-21-16-11-9-8-8z" fill="#FBFDFC"/>
<path transform="translate(891,1383)" d="m0 0 4 1 3 7 2 14v15l-3 15-4 3-3-3-3-10-1-7v-19l2-11z" fill="#FBFDFC"/>
<path transform="translate(1102,1364)" d="m0 0 4 1 3 6 2 12v20l-2 11-3 4-4-1-3-8-2-15v-12l2-13z" fill="#FCFEFC"/>
<path transform="translate(1124,1354)" d="m0 0 5 1 3 7 2 17v9l-2 14-3 6-4-1-3-6-2-12v-21l2-10z" fill="#FCFEFC"/>
<path transform="translate(679,1276)" d="m0 0h8l15 4 6 4-1 4-5 4-13 4-5 1h-7l-5-3-2-5v-6l4-5z" fill="#FBFDFC"/>
<path transform="translate(862,1370)" d="m0 0 4 1 3 6 2 11v22l-3 12-2 2-4-1-3-8-2-15v-10l2-14z" fill="#FFFFFD"/>
<path transform="translate(997,1253)" d="m0 0 4 1 5 8 2 8v22l-3 6-5 1-4-5-3-9-1-6v-17l3-8z" fill="#FCFEFC"/>
<path transform="translate(953,1252)" d="m0 0 5 1 3 6 1 12-2 14-4 10-4 3-4-2-3-7v-18l3-12 4-6z" fill="#FCFEFC"/>
<path transform="translate(1330,1276)" d="m0 0h7l6 3 3 5-1 8-4 4-9 1-16-4-7-4-1-5 6-4z" fill="#FCFEFC"/>
<path transform="translate(654,1307)" d="m0 0h15l8 2 2 4-4 6-10 7-7 3h-7l-5-5-2-3v-7l4-5z" fill="#FAFDFC"/>
<path transform="translate(1347,1307)" d="m0 0h15l7 3 3 5-1 8-6 6h-7l-12-6-7-6-2-6 4-3z" fill="#FCFEFC"/>
<path transform="translate(1282,1258)" d="m0 0 14 1 8 3 2 2v5l-4 5-7 2h-10l-11-2-7-4-1-5 4-4 5-2z" fill="#FCFEFC"/>
<path transform="translate(1297,1428)" d="m0 0h8l14 7 5 6 2 8-3 5-4 2h-7l-6-4-6-7-4-8v-7z" fill="#FAFDFC"/>
<path transform="translate(1321,1341)" d="m0 0h14l11 3 5 4 1 2v8l-4 5-3 2h-7l-9-6-7-7-3-6 1-4z" fill="#FCFEFC"/>
<path transform="translate(682,1341)" d="m0 0h13l2 2-1 5-6 8-8 7-4 2h-7l-5-4-2-3v-8l4-5 9-3z" fill="#FCFEFC"/>
<path transform="translate(728,1258)" d="m0 0 13 1 6 3 3 3-1 4-5 4-6 2-7 1h-10l-7-2-4-5v-5l5-4z" fill="#FBFDFC"/>
<path transform="translate(692,1408)" d="m0 0 7 1 1 6-4 8-9 9-6 3-7-1-5-5-1-4 3-7 8-6z" fill="#FAFDFC"/>
<path transform="translate(1318,1408)" d="m0 0 10 1 10 4 6 4 3 4v8l-5 5-7 1-7-4-6-5-5-7-1-9z" fill="#FBFDFC"/>
<path transform="translate(711,1428)" d="m0 0h7l2 3-1 8-5 8-5 6-5 3h-7l-5-3-2-4 1-6 4-6 9-6z" fill="#FAFDFC"/>
<path transform="translate(1320,1488)" d="m0 0 4 2 17 17 8 7 10 10 11 9 13 13 2 5-8-1-9-7-13-12-8-8-7-8-8-8-10-13-2-3z" fill="#F5FCFB"/>
<path transform="translate(756,1461)" d="m0 0h6l2 3v10l-5 12-4 5-2 1h-9l-5-4v-9l4-7 8-8z" fill="#FCFEFC"/>
<path transform="translate(736,1447)" d="m0 0h5l2 4-1 9-6 11-6 6h-9l-5-4-1-7 3-6 5-5 10-7z" fill="#FBFDFC"/>
<path transform="translate(1254,1461)" d="m0 0h6l8 6 7 8 2 4v8l-5 5h-9l-5-5-5-9-1-4v-11z" fill="#FCFEFC"/>
<path transform="translate(1275,1447)" d="m0 0 7 1 10 6 7 8 1 2v9l-5 4h-9l-7-7-6-12v-8z" fill="#FCFEFC"/>
<path transform="translate(1306,1497)" d="m0 0 7 6 15 16 8 8 4 5 8 7 9 9 7 8 4 5v3l-7-1-12-10-7-8-11-12-9-11-10-12-6-10z" fill="#F5FCFB"/>
<path transform="translate(707,1498)" d="m0 0 3 1-7 12-24 28-11 12-10 10-6 3h-4l1-5 11-12 31-31 7-8 7-7z" fill="#F9FDFC"/>
<path transform="translate(682,1477)" d="m0 0 3 1-6 9-9 10-30 30-13 10-4 2h-5l2-5 12-12 11-9 26-24 8-7z" fill="#F8FDFB"/>
<path transform="translate(1342,1470)" d="m0 0 5 2 8 7 14 11 15 12 14 10 13 11 2 4h-8l-11-7-11-9-10-9-11-9-14-13-6-8z" fill="#F7FCFB"/>
<path transform="translate(672,1470)" d="m0 0 2 1-6 8-4 5-8 7-10 9-11 9-8 7-14 10-2 1h-8l3-5 9-8 19-14 16-13 13-10z" fill="#F7FCFB"/>
<path transform="translate(695,1487)" d="m0 0 1 3-7 11-9 9-7 8-27 27-7 5-8 1 2-5 16-16 8-7 10-9 12-12 8-7z" fill="#FAFDFC"/>
<path transform="translate(1331,1477)" d="m0 0 4 1 12 12 8 7 13 12 11 9 15 14 4 5v2l-7-1-9-6-12-11-32-32-7-11z" fill="#F9FDFC"/>
<path transform="translate(1018,1189)" d="m0 0 4 1 5 10 2 8 1 9v10l-2 8-1 2-5-1-4-8-3-12v-22z" fill="#FAFDFC"/>
<path transform="translate(1077,1454)" d="m0 0 5 1 3 4 2 7v22l-3 8-2 2-4-1-3-4-2-7v-24z" fill="#FCFEFC"/>
<path transform="translate(776,1479)" d="m0 0h5l4 4v9l-5 10-5 5-6 1-5-2-3-3v-10l4-6 7-6z" fill="#F8FDFB"/>
<path transform="translate(1235,1479)" d="m0 0 7 1 8 6 5 8v9l-4 4-8 1-6-4-6-12v-9z" fill="#FBFEFC"/>
<path transform="translate(1076,884)" d="m0 0 8 1 12 4 11 6 6 5 5 9-1 2-13-6-17-4-12-1z" fill="#F8FDFB"/>
<path transform="translate(1147,1333)" d="m0 0 4 4 3 16v20l-2 11-2 4-4-2-3-10-1-11v-13l2-14z" fill="#FDFEFC"/>
<path transform="translate(1020,1249)" d="m0 0 5 1 5 10 1 5v18l-3 7-4 1-4-4-3-8-1-7v-14l2-7z" fill="#FBFEFC"/>
<path transform="translate(1293,1508)" d="m0 0 4 2 7 9 12 14 9 11 10 10 9 11 4 5v4l-6-1-9-8-9-11-13-16-14-19-4-8z" fill="#F7FCFB"/>
<path transform="translate(931,1253)" d="m0 0 4 1 3 6v18l-2 9-5 8-5-1-3-8v-14l3-13 3-5z" fill="#FCFEFC"/>
<path transform="translate(913,1250)" d="m0 0h5l2 4v17l-3 11-4 7-2 2-5-1-2-5v-14l3-12 5-8z" fill="#FCFEFC"/>
<path transform="translate(1038,1245)" d="m0 0 5 1 4 5 4 13v17l-3 5-5-1-5-8-3-13v-14z" fill="#FBFDFC"/>
<path transform="translate(721,1508)" d="m0 0h2l-2 6-6 10-16 21-9 11-9 10-7 7-7 1 2-6 9-10 7-8 12-13 9-11 12-14z" fill="#F9FDFC"/>
<path transform="translate(836,1359)" d="m0 0 4 1 3 8 1 7v25l-2 10-2 3-4-2-2-6-1-7v-28l2-9z" fill="#FCFEFC"/>
<path transform="translate(851,1287)" d="m0 0 5 1 1 3v8l-2 10-5 12-4 6-6 1-2-6 1-12 4-12 5-8z" fill="#FBFDFC"/>
<path transform="translate(1136,1528)" d="m0 0h5l6 7 3 10-1 11-4 5h-7l-5-5-2-12 1-11z" fill="#FCFEFC"/>
<path transform="translate(1105,1286)" d="m0 0 5 1 6 9 4 11 1 6v11l-2 3-5-1-4-5-5-11-2-9v-13z" fill="#FCFEFC"/>
<path transform="translate(1305,1363)" d="m0 0h10l12 4 5 4 2 6-2 5-6 5-8-1-5-4-8-11-1-7z" fill="#FBFDFC"/>
<path transform="translate(701,1363)" d="m0 0h10v7l-6 9-8 7-7 1-7-6-1-7 5-6z" fill="#FCFEFC"/>
<path transform="translate(1260,1531)" d="m0 0 4 4 17 28 13 20 7 11 1 7-6-2-7-9-12-20-14-26-3-8z" fill="#F6FCFB"/>
<path transform="translate(744,1523)" d="m0 0 1 4-8 16-12 20-10 15-8 10-6 4h-2l1-6 8-12 14-19 15-22z" fill="#F4FBFB"/>
<path transform="translate(1271,1523)" d="m0 0 4 4 10 15 11 16 12 16 9 14v4l-6-2-9-10-13-20-15-25-3-8z" fill="#F1FAFA"/>
<path transform="translate(744,1306)" d="m0 0h9l5 3-1 7-9 6-9 3h-8l-5-3-1-7 6-5z" fill="#FCFEFC"/>
<path transform="translate(1282,1519)" d="m0 0 4 2 9 12 16 21 11 13 10 14v3l-6-1-10-10-14-19-8-12-9-14z" fill="#F6FCFB"/>
<path transform="translate(1263,1306)" d="m0 0h8l9 2 8 4 3 3v5l-4 4-2 1h-8l-11-4-6-4-2-3v-5z" fill="#FBFDFC"/>
<path transform="translate(732,1519)" d="m0 0 1 4-7 13-12 17-10 14-8 10-8 7h-4l1-5 10-13 11-13 15-20 10-13z" fill="#F7FCFB"/>
<path transform="translate(1179,1514)" d="m0 0 6 2 6 8 2 6-1 9-5 4h-6l-5-3-3-8v-13l3-4z" fill="#F8FDFB"/>
<path transform="translate(835,1514)" d="m0 0 6 2 2 3v12l-3 8-5 4h-6l-5-4-1-2v-8l5-10 5-4z" fill="#F9FDFC"/>
<path transform="translate(755,1530)" d="m0 0h1l-1 8-10 21-13 23-11 16-5 3h-2l1-7 10-16 10-15 12-20z" fill="#F9FDFB"/>
<path transform="translate(951,1591)" d="m0 0 5 1 4 10v20l-3 7-4 2-4-4-2-6-1-8v-9l2-9z" fill="#FCFEFC"/>
<path transform="translate(1006,1598)" d="m0 0 5 1 4 8 1 5v14l-3 10-1 1h-5l-4-8-1-5v-15l3-9z" fill="#FCFEFC"/>
<path transform="translate(956,1193)" d="m0 0 4 1 2 3 1 5v23l-4 11-4 1-3-5-1-4v-22l3-11z" fill="#FBFDFC"/>
<path transform="translate(1156,1525)" d="m0 0h7l7 8 2 5v10l-3 4-7 1-6-3-3-7v-15z" fill="#FBFDFC"/>
<path transform="translate(853,1525)" d="m0 0h7l3 4v13l-3 8-7 3-6-1-3-3-1-6 2-9z" fill="#FBFDFC"/>
<path transform="translate(906,1136)" d="m0 0 5 1 3 6v9l-3 10-4 6-6 1-3-3-1-2v-14l4-10z" fill="#FBFDFC"/>
<path transform="translate(689,406)" d="m0 0 3 1-14 8-11 8-10 9-9 10-1-3 3-12 2-15 22-2z" fill="#128C48"/>
<path transform="translate(1250,1419)" d="m0 0 8 1 11 6 5 6v7l-4 4-3 1h-7l-7-8-4-9v-7z" fill="#FAFDFC"/>
<path transform="translate(1270,1404)" d="m0 0 9 1 11 6 5 6v6l-5 5-2 1h-7l-7-8-4-9z" fill="#FAFDFC"/>
<path transform="translate(1022,1776)" d="m0 0h8l2 1v13l-1 19-1 7h-10v-19l1-18z" fill="#FECC00"/>
<path transform="translate(739,1404)" d="m0 0h6l1 1v7l-6 12-6 5h-6l-6-4-1-2v-6l5-6z" fill="#FDFEFC"/>
<path transform="translate(720,1384)" d="m0 0 5 1v8l-5 10-4 5-2 1h-7l-6-4-1-7 4-6 9-5z" fill="#FAFDFC"/>
<path transform="translate(1058,1242)" d="m0 0 5 1 5 10 2 9v12l-3 6-5-1-5-10-2-8v-14z" fill="#FBFEFC"/>
<path transform="translate(761,1419)" d="m0 0h5l1 1-1 9-6 11-5 4h-7l-6-5v-7l6-7z" fill="#FBFEFC"/>
<path transform="translate(1292,1384)" d="m0 0 7 1 11 6 5 5 1 6-3 5-4 2h-7l-5-5-5-8-2-10z" fill="#FCFEFC"/>
<path transform="translate(1274,1285)" d="m0 0h17l8 3 1 1-1 7-4 3-3 1h-10l-10-2-5-3-1-5 5-4z" fill="#FDFEFC"/>
<path transform="translate(895,1248)" d="m0 0 4 1 2 4v13l-3 12-4 7-5 1-2-2-1-4v-11l3-13 4-6z" fill="#FBFDFC"/>
<path transform="translate(1133,1422)" d="m0 0 5 1 3 7 1 5v16l-3 9-5 1-4-8-1-4v-19l3-7z" fill="#FDFEFC"/>
<path transform="translate(726,1285)" d="m0 0h16l6 3 2 5-6 5-10 2h-10l-6-3-2-3v-5l5-3z" fill="#FBFEFC"/>
<path transform="translate(865,1442)" d="m0 0 4 1 4 8 1 7v9l-2 10-3 4-4-1-3-5-2-15 1-11 3-6z" fill="#FEFEFC"/>
<path transform="translate(1097,1444)" d="m0 0h4l3 8 1 6v19l-3 10h-4l-3-6-2-14 1-16z" fill="#FDFEFC"/>
<path transform="translate(1116,1433)" d="m0 0 4 2 3 10 1 15-2 14-3 4-3-1-3-8-1-6v-18l2-9z" fill="#FDFEFC"/>
<path transform="translate(800,1797)" d="m0 0 6 1 4 4 2 5v10l-4 5-2 1h-6l-5-4-2-5v-11l4-5z" fill="#FFFFFD"/>
<path transform="translate(1134,1795)" d="m0 0h6l5 4 1 2v10l-4 8-4 2-7-1-4-5v-11l3-6z" fill="#FFFFFD"/>
<path transform="translate(1041,1536)" d="m0 0 4 2 3 5 2 10-1 12-3 6-5 1-4-6-2-10 1-13 3-6z" fill="#FAFDFC"/>
<path transform="translate(928,1585)" d="m0 0 4 1 3 4 2 9v10l-2 8-3 4-4-1-4-6-1-4v-17l3-7z" fill="#FAFDFC"/>
<path transform="translate(1189,1575)" d="m0 0h2l7 30 9 34 1 10h-4l-4-8-5-19-5-26-1-7z" fill="#F4FBFB"/>
<path transform="translate(814,1568)" d="m0 0h1v9l-12 36-8 18-4 6-2 2h-3l1-8 13-29 11-27z" fill="#F5FBFB"/>
<path transform="translate(1252,1540)" d="m0 0 4 5 14 27 14 24 4 8v4l-4-1-5-5-9-16-11-22-6-14z" fill="#F4FBFB"/>
<path transform="translate(920,1530)" d="m0 0 5 1 4 9v18l-3 6-5 1-4-5-2-8v-11l3-9z" fill="#FBFDFC"/>
<path transform="translate(774,1545)" d="m0 0h2l-2 12-10 25-9 20-6 9-5 4h-1v-6l20-40z" fill="#F7FCFB"/>
<path transform="translate(1217,1495)" d="m0 0h6l8 7 3 6v9l-5 4h-6l-6-5-3-8v-9z" fill="#FAFDFC"/>
<path transform="translate(831,1577)" d="m0 0h1v9l-10 30-10 23-4 6-3 3h-2v-6l10-23 12-28 5-13z" fill="#F7FCFB"/>
<path transform="translate(1204,1567)" d="m0 0 3 3 7 25 12 38v8l-5-3-5-11-6-22-6-27z" fill="#F5FCFB"/>
<path transform="translate(1229,1553)" d="m0 0 3 4 15 37 8 17 3 8v5l-4-1-4-5-8-18-12-34-1-5z" fill="#F8FCFB"/>
<path transform="translate(1240,1545)" d="m0 0 3 3 13 27 8 16 9 19v5l-6-3-9-16-12-28-6-17z" fill="#F4FBFB"/>
<path transform="translate(793,1495)" d="m0 0 7 1 2 4-1 10-4 8-4 3h-6l-4-2-1-2v-10l6-9z" fill="#FCFEFC"/>
<path transform="translate(1289,1328)" d="m0 0h7l8 4 8 7 3 5-1 4-4 3h-6l-8-5-7-7-2-4v-5z" fill="#FBFDFC"/>
<path transform="translate(786,1553)" d="m0 0h1v8l-12 36-9 21-4 5-4 1 1-9 15-33 11-28z" fill="#F4FBFB"/>
<path transform="translate(763,1541)" d="m0 0h1l-1 8-5 12-16 33-7 10-4 4h-3l1-7 12-21 9-16 12-22z" fill="#F7FCFB"/>
<path transform="translate(720,1328)" d="m0 0h7l2 2-1 7-9 10-7 4h-6l-5-4 1-5 8-9z" fill="#FDFEFC"/>
<path transform="translate(1029,1593)" d="m0 0 5 1 3 5 1 4v18l-3 6-5 1-4-6-2-10 1-13 3-5z" fill="#FDFEFC"/>
<path transform="translate(811,1504)" d="m0 0h7l3 4v12l-3 8-3 2h-9l-3-3-1-6 2-8 4-6z" fill="#FCFEFC"/>
<path transform="translate(734,1354)" d="m0 0h8l2 2-1 7-7 8-7 5-7 1-5-3-1-4 6-8 8-6z" fill="#FBFDFC"/>
<path transform="translate(1216,1560)" d="m0 0h2l12 34 10 26 2 5v7l-4-2-4-5-9-25-8-29z" fill="#F7FCFB"/>
<path transform="translate(755,1329)" d="m0 0h9l3 2-1 6-5 5-8 5-5 2-8-1-3-3 1-6 8-6z" fill="#FAFDFC"/>
<path transform="translate(798,1559)" d="m0 0h1v11l-6 23-8 24-6 12-3 3h-2v-7l15-40z" fill="#F7FCFB"/>
<path transform="translate(1252,1329)" d="m0 0h9l12 6 5 4 1 5-4 4-7 1-9-4-8-6-2-4 1-5z" fill="#FCFEFC"/>
<path transform="translate(1198,1504)" d="m0 0h6l5 4 4 8v10l-3 4h-9l-4-4-2-5v-14z" fill="#FDFEFC"/>
<path transform="translate(1273,1354)" d="m0 0h8l8 4 7 6 3 4v6l-5 3-7-1-8-6-6-7-1-2v-6z" fill="#FAFDFC"/>
<path transform="translate(1035,1189)" d="m0 0 4 1 4 7 2 9v20l-2 4-4-1-4-8-2-9-1-14 2-8z" fill="#FBFDFC"/>
<path transform="translate(699,1305)" d="m0 0h14l3 3-1 5-8 6-10 3h-7l-5-4v-6l8-5z" fill="#FBFDFC"/>
<path transform="translate(1303,1305)" d="m0 0h14l10 4 4 4-1 6-5 3h-7l-13-5-5-5 1-6z" fill="#F9FDFC"/>
<path transform="translate(1175,1582)" d="m0 0h2l8 43 5 23v9l-4-1-3-6-4-19-4-29z" fill="#F9FDFB"/>
<path transform="translate(1061,849)" d="m0 0 16 8 1 1v18l-9-2-9-3v-14z" fill="#F9FDFC"/>
<path transform="translate(254,1117)" d="m0 0 10 3 8 6 6 12v2l-15 5-9-25z" fill="#128C48"/>
<path transform="translate(751,1374)" d="m0 0h7l2 2-1 6-7 8-7 5h-7l-4-4 2-6 9-8z" fill="#F8FDFB"/>
<path transform="translate(1074,1236)" d="m0 0 5 1 4 5 5 12 1 11-2 4-5-1-6-9-3-10v-11z" fill="#F7FCFB"/>
<path transform="translate(880,1243)" d="m0 0 4 1 1 8-3 12-4 8-5 4-4-2v-11l4-12 5-7z" fill="#FBFEFC"/>
<path transform="translate(846,1584)" d="m0 0h2l-2 11-11 28-9 17-4 3h-3l1-6 16-32 9-20z" fill="#F4FBFB"/>
<path transform="translate(1258,1374)" d="m0 0 9 1 9 6 5 6v6l-3 2h-7l-8-6-6-7-1-6z" fill="#F8FDFB"/>
<path transform="translate(1118,1544)" d="m0 0 5 1 3 6 1 10-3 9-2 1h-6l-3-3-1-3 1-14 3-6z" fill="#FCFEFC"/>
<path transform="translate(1188,1475)" d="m0 0 5 1 7 8 3 6v6l-4 4h-8l-4-4-1-5v-11z" fill="#F9FDFC"/>
<path transform="translate(1222,1451)" d="m0 0 7 1 8 8 3 5-1 7-4 3h-7l-4-4-3-11z" fill="#FCFEFC"/>
<path transform="translate(1205,1463)" d="m0 0 5 1 9 8 3 5-1 7-4 3h-7l-4-4-3-11v-6z" fill="#FCFEFC"/>
<path transform="translate(1131,1497)" d="m0 0 5 1 6 12v9l-5 4-7-1-4-5v-8l4-11z" fill="#FBFDFC"/>
<path transform="translate(1171,1484)" d="m0 0 5 1 5 10 1 3v8l-3 3-6 1-6-3-1-2v-8l3-11z" fill="#FAFDFC"/>
<path transform="translate(824,1475)" d="m0 0 4 1 2 5-1 14-4 5h-8l-4-4v-7l7-11z" fill="#F9FDFB"/>
<path transform="translate(708,1145)" d="m0 0 4 2 11 10 20 15 14 10 14 9-4 19-3 1-1 3v-23l-4-2-13-10-11-9-13-11-13-12z" fill="#010B07"/>
<path transform="translate(807,1463)" d="m0 0 5 1 1 6-2 10-3 6-2 1h-7l-5-4v-6l6-8z" fill="#FAFDFC"/>
<path transform="translate(1238,1437)" d="m0 0 5 1 9 6 4 4 1 7-5 5h-7l-5-5-3-8v-9z" fill="#FCFEFC"/>
<path transform="translate(775,1437)" d="m0 0 4 1v9l-6 12-2 1h-7l-5-5 1-7 9-8z" fill="#FAFDFC"/>
<path transform="translate(1151,1492)" d="m0 0 5 1 4 6 3 10-2 7-3 2-8-1-3-3v-13z" fill="#F9FDFB"/>
<path transform="translate(791,1450)" d="m0 0 3 2v12l-3 8-3 3h-7l-5-4v-6l4-6 7-7z" fill="#FAFDFC"/>
<path transform="translate(841,1484)" d="m0 0 5 1 3 7 1 12-4 5-6 1-5-3-1-1v-8l5-12z" fill="#FCFEFC"/>
<path transform="translate(902,1520)" d="m0 0 4 2 3 9v16l-2 7-4 2-3-4-2-10v-11l2-8z" fill="#FBFDFC"/>
<path transform="translate(922,1195)" d="m0 0h4l2 5v9l-3 11-4 6-5-1-1-1v-17l4-9z" fill="#FBFDFC"/>
<path transform="translate(1065,1525)" d="m0 0 4 2 3 9v18l-3 7-4-1-3-8-1-13 2-11z" fill="#F9FDFC"/>
<path transform="translate(1160,1595)" d="m0 0h2l5 37 3 21v8l-4-2-3-9-3-27-1-12v-11z" fill="#FCFEFC"/>
<path transform="translate(940,1193)" d="m0 0 4 2 1 4v10l-3 14-3 5h-4l-1-1-1-11 3-16 3-6z" fill="#FBFDFC"/>
<path transform="translate(1051,1189)" d="m0 0 4 2 3 4 4 13v15l-4 1-4-5-4-13-1-14z" fill="#F9FDFC"/>
<path transform="translate(1244,1392)" d="m0 0 8 1 8 6 5 7-1 5-2 1h-7l-8-7-4-5v-7z" fill="#F8FCFB"/>
<path transform="translate(767,1392)" d="m0 0h5l1 1v7l-9 10-3 2h-7l-3-2 1-6 7-8z" fill="#FAFDFC"/>
<path transform="translate(829,1416)" d="m0 0 5 1 1 1-1 9-6 9-4 3-6-1-1-1v-6l5-9z" fill="#FAFDFC"/>
<path transform="translate(1231,1365)" d="m0 0 7 1 9 6 4 5v5l-3 2h-6l-6-4-7-8v-5z" fill="#FAFDFC"/>
<path transform="translate(1208,1393)" d="m0 0h7l8 5 6 7-1 5-4 2-5-1-8-6-4-5v-6z" fill="#FBFDFC"/>
<path transform="translate(780,1365)" d="m0 0h5l2 2-1 6-7 8-5 3h-6l-3-2 1-7 8-7z" fill="#FBFDFC"/>
<path transform="translate(1183,1416)" d="m0 0 5 1 6 5 5 10v5l-3 2-6-1-6-7-3-6v-7z" fill="#FBFDFC"/>
<path transform="translate(816,1404)" d="m0 0h5l1 1v6l-5 8-5 5-6 1-4-2 1-7 6-8z" fill="#FAFDFC"/>
<path transform="translate(1219,1379)" d="m0 0h7l9 6 5 6-1 5-2 1h-7l-8-6-4-5-1-5z" fill="#FBFDFC"/>
<path transform="translate(1195,1404)" d="m0 0 7 1 8 7 4 6v5l-4 2-6-1-7-7-3-5v-7z" fill="#FAFDFC"/>
<path transform="translate(801,1393)" d="m0 0h7l1 1-1 7-4 5-7 5-6 1-4-3v-5l8-8z" fill="#F9FDFB"/>
<path transform="translate(790,1379)" d="m0 0h7l1 1v6l-6 7-6 4h-8l-2-2 1-6 7-7z" fill="#FCFEFC"/>
<path transform="translate(1241,1347)" d="m0 0 9 1 9 7 3 4-1 5-1 1h-8l-8-6-4-5-1-5z" fill="#FDFEFC"/>
<path transform="translate(768,1347)" d="m0 0h7l1 1v6l-7 8-5 3h-8l-2-2 1-6 9-8z" fill="#FDFEFC"/>
<path transform="translate(1049,1589)" d="m0 0h3l2 6 1 15-2 13h-4l-2-5-1-17 2-11z" fill="#F9FDFC"/>
<path transform="translate(1131,1597)" d="m0 0h2l5 25 2 9v6l-2 1-5-4-2-6-1-7v-22z" fill="#FDFEFC"/>
<path transform="translate(1148,1596)" d="m0 0 2 1 4 23 2 9v7l-2 1-5-5-2-6-1-9v-18z" fill="#FDFEFC"/>
<path transform="translate(912,1576)" d="m0 0 3 1 2 7v23l-3 5-3-3-2-11v-11l2-10z" fill="#FBFDFC"/>
<path transform="translate(1169,1430)" d="m0 0 5 1 6 7 3 7v5l-1 1h-6l-5-4-4-9v-6z" fill="#F6FCFB"/>
<path transform="translate(904,1195)" d="m0 0 3 1 1 2v12l-3 8-2 3-5-1-1-2v-9l3-10z" fill="#FAFDFC"/>
<path transform="translate(1155,1439)" d="m0 0 6 1 4 7 1 3v9h-7l-3-4-2-6v-8z" fill="#F7FCFB"/>
<path transform="translate(1208,1433)" d="m0 0 5 1 6 8 2 5-1 4-5 1-5-4-4-8v-5z" fill="#F7FCFB"/>
<path transform="translate(805,1433)" d="m0 0 4 1 1 5-5 10-4 3-5-1-1-5 4-8z" fill="#F7FCFB"/>
<path transform="translate(1191,1443)" d="m0 0 6 1 6 9 1 8-1 1-7-1-5-8-1-8z" fill="#FCFEFC"/>
<path transform="translate(1157,1463)" d="m0 0 4 2 2 4v10l-2 5h-5l-3-4v-11l3-5z" fill="#FAFDFC"/>
<path transform="translate(821,1443)" d="m0 0 4 1 1 4-3 9-5 5h-5l-1-1 1-9 6-8z" fill="#FCFEFC"/>
<path transform="translate(1169,1459)" d="m0 0 4 1 4 5 2 12-1 2h-6l-3-3-2-7v-7z" fill="#F9FDFB"/>
<path transform="translate(782,1412)" d="m0 0 5 1-1 7-7 7-7 1-3-2 2-6 8-7z" fill="#FCFEFC"/>
<path transform="translate(844,1459)" d="m0 0 4 1 1 7-3 10-2 2h-6l-1-1 1-11 4-6z" fill="#FCFEFC"/>
<path transform="translate(1218,1424)" d="m0 0 6 1 8 7 2 3-1 4-7 1-7-6-3-5 1-4z" fill="#FCFEFC"/>
<path transform="translate(1230,1412)" d="m0 0 6 1 8 6 2 3v5l-7 1-8-7-2-2v-6z" fill="#F5FCFB"/>
<path transform="translate(794,1424)" d="m0 0 5 1v6l-8 8-7 1-2-2 1-5 4-5z" fill="#FDFEFC"/>
<path transform="translate(1142,1468)" d="m0 0 5 1 1 2v14l-3 4-4-1-2-2-1-6 2-9z" fill="#FDFEFC"/>
<path transform="translate(1070,1578)" d="m0 0 3 3 1 7v17l-2 9-2-1-2-11v-15z" fill="#FAFDFC"/>
<path transform="translate(896,1565)" d="m0 0 2 1 2 11v14l-1 8-3 1-2-10v-17z" fill="#FDFEFC"/>
<path transform="translate(1085,1515)" d="m0 0h2l2 9v18l-1 7h-3l-2-13v-12z" fill="#FBFDFC"/>
<path transform="translate(884,1512)" d="m0 0h2l2 10v18l-2 8-2-1-2-14v-10l1-9z" fill="#FBFDFC"/>
<path transform="translate(832,1453)" d="m0 0 3 2v9l-3 6-1 1h-5l-1-1v-7l4-8z" fill="#F9FDFB"/>
<path transform="translate(1183,1453)" d="m0 0 4 2 3 6 1 9-1 1h-5l-3-3-1-3v-11z" fill="#F9FDFB"/>
<path transform="translate(891,1197)" d="m0 0 3 1v10l-4 10-3 2-1-1v-11l4-10z" fill="#F8FDFB"/>
<path transform="translate(1035,886)" d="m0 0h6l4 2 1 3-2 3-3 1h-7l-4-3 1-4z" fill="#FAFDFC"/>
<path transform="translate(909,1799)" d="m0 0h9l3 3-1 5-3 2h-8z" fill="#FFFFFD"/>
<path transform="translate(1082,1623)" d="m0 0 2 2 1 6v18l-1 6h-2l-1-6v-23z" fill="#F7FCFB"/>
<path transform="translate(1016,1647)" d="m0 0h2l1 6v21l-1 4h-2l-1-7v-19z" fill="#FAFDFC"/>
<path transform="translate(1027,1645)" d="m0 0 2 1 1 6v20l-1 5-2-1-1-6v-20z" fill="#FCFEFC"/>
<path transform="translate(1072,1632)" d="m0 0 2 1 1 7v16l-1 7h-2l-1-4v-25z" fill="#FAFDFC"/>
<path transform="translate(890,1612)" d="m0 0h2l1 6v21l-1 4h-2l-1-7v-19z" fill="#FCFEFC"/>
<path transform="translate(991,1649)" d="m0 0h2l1 5v22l-2 4-1-1-1-7v-18z" fill="#FFFFFD"/>
<path transform="translate(956,1643)" d="m0 0 2 2 1 7v16l-1 7h-2l-1-5v-23z" fill="#F9FDFC"/>
<path transform="translate(1039,1642)" d="m0 0 2 1 1 7v17l-1 6h-2l-1-5v-23z" fill="#FFFFFD"/>
<path transform="translate(944,1639)" d="m0 0 2 1 1 7v18l-1 6-2-1-1-6v-21z" fill="#FFFFFD"/>
<path transform="translate(923,1633)" d="m0 0 2 2 1 7v17l-1 6h-2l-1-6v-22z" fill="#FCFEFC"/>
<path transform="translate(934,1637)" d="m0 0 2 1 1 7v16l-1 7h-2l-1-5v-23z" fill="#FFFFFD"/>
<path transform="translate(910,1623)" d="m0 0 2 3v27l-2 2-1-2-1-10v-10l1-9z" fill="#F9FDFC"/>
<path transform="translate(967,1645)" d="m0 0 2 2 1 10v11l-1 8-2 1-1-4v-25z" fill="#FCFEFC"/>
<path transform="translate(1063,1636)" d="m0 0 2 3 1 14-1 13-2 2-1-3-1-19 1-9z" fill="#FFFFFD"/>
<path transform="translate(1e3 1649)" d="m0 0 2 3 1 16-1 11-2 1-1-3-1-14 1-13z" fill="#FFFFFD"/>
<path transform="translate(1052,1640)" d="m0 0 2 4v26l-2 2-1-3-1-17 1-11z" fill="#FFFFFD"/>
<path transform="translate(978,1649)" d="m0 0h2l1 2v28l-2 1-1-2z" fill="#F3FBFA"/>
<path transform="translate(899,1618)" d="m0 0 2 3v27l-2 2-1-3v-28z" fill="#F9FDFB"/>
<path transform="translate(1101,1511)" d="m0 0h2l1 3v19l-2 3-2-8v-11z" fill="#FFFFFD"/>
<path transform="translate(873,1508)" d="m0 0 2 3v21l-2 1-2-9v-9z" fill="#FBFDFC"/>
<path transform="translate(908,1784)" d="m0 0h9l1 1v5l-3 2h-6l-1-1z" fill="#FFFFFD"/>
<path transform="translate(827,1781)" d="m0 0h6l8 8-3 2-5-2-8-6z" fill="#FECC00"/>
<path transform="translate(1057,885)" d="m0 0 5 5 3 5h-9l-3-1 2-6z" fill="#FBFDFC"/>
<path transform="translate(757,1234)" d="m0 0h1l4 22 4 16h-3l-7-34z" fill="#032217"/>
<path transform="translate(499,501)" d="m0 0 3 1-21 11-2-1 11-7z"/>
<path transform="translate(1251,827)" d="m0 0m-3 1h3v2l-18 7-2-1 10-5z" fill="#FFFFFD"/>
<path transform="translate(1245,817)" d="m0 0m-2 1h2v2l-16 7-2-1z" fill="#FFFFFD"/>
<path transform="translate(1103,682)" d="m0 0 1 3-7 16-2-1 6-16z" fill="#FFFFFD"/>
<path transform="translate(1219,770)" d="m0 0m-1 1m-1 1m-1 1m-2 1h2l-2 4-10 7-2-1 8-7z" fill="#FFFFFD"/>
<path transform="translate(1225,780)" d="m0 0m-1 1m-1 1m-2 1h2l-1 3-11 7-2-1z" fill="#FFFFFD"/>
<path transform="translate(1214,759)" d="m0 0m-1 1m-1 1m-1 1m-1 1m-1 1m-2 1h2l-2 4-8 6-2-1z" fill="#FFFFFD"/>
</svg>
